<?xml version="1.0" encoding="UTF-8"?>
<svg xmlns="http://www.w3.org/2000/svg" viewBox="0 0 466 431" width="466" height="431">
  <rect width="466" height="431" fill="#e5e7e6"/>
  <path d="M 152.58,285.00 C 151.83,285.00 151.11,284.93 150.33,285.00 C 149.56,285.07 148.68,285.26 147.92,285.42 C 147.15,285.58 146.49,285.72 145.75,285.96 C 145.01,286.20 144.01,286.55 143.46,286.88 C 142.90,287.20 142.76,287.57 142.42,287.92 C 142.07,288.26 141.70,288.55 141.38,288.96 C 141.05,289.37 140.76,289.90 140.46,290.37 C 140.15,290.85 139.83,290.24 139.54,291.79 C 139.26,293.35 138.94,297.10 138.75,299.71 C 138.56,302.32 138.50,304.85 138.38,307.46 C 138.25,310.06 138.06,312.73 138.00,315.33 C 137.94,317.94 138.00,320.50 138.00,323.08 C 138.00,325.67 137.94,328.23 138.00,330.83 C 138.06,333.44 138.25,336.12 138.38,338.71 C 138.50,341.29 138.51,343.72 138.75,346.33 C 138.99,348.94 139.42,352.78 139.79,354.38 C 140.16,355.97 140.55,355.38 140.96,355.92 C 141.37,356.45 141.80,357.07 142.25,357.58 C 142.70,358.10 143.19,358.53 143.67,359.00 C 144.14,359.47 144.57,359.97 145.08,360.42 C 145.60,360.87 146.22,361.30 146.75,361.71 C 147.28,362.12 147.55,362.51 148.29,362.88 C 149.03,363.24 150.31,363.68 151.21,363.92 C 152.11,364.15 152.85,364.17 153.71,364.29 C 154.56,364.42 155.48,364.60 156.33,364.67 C 157.19,364.73 158.00,364.67 158.83,364.67 C 159.67,364.67 160.50,364.71 161.33,364.67 C 162.17,364.62 163.02,364.50 163.83,364.42 C 164.65,364.33 165.42,364.29 166.21,364.17 C 167.00,364.04 168.00,363.83 168.58,363.67 C 169.17,363.50 169.31,363.35 169.71,363.17 C 170.10,362.98 170.56,362.75 170.96,362.54 C 171.35,362.33 171.71,362.12 172.08,361.92 C 172.46,361.71 172.83,361.50 173.21,361.29 C 173.58,361.08 173.96,360.87 174.33,360.67 C 174.71,360.46 175.08,360.25 175.46,360.04 C 175.83,359.83 176.19,359.65 176.58,359.42 C 176.98,359.19 177.42,358.92 177.83,358.67 C 178.25,358.42 178.69,358.15 179.08,357.92 C 179.48,357.69 179.83,357.50 180.21,357.29 C 180.58,357.08 180.96,356.87 181.33,356.67 C 181.71,356.46 182.08,356.25 182.46,356.04 C 182.83,355.83 183.19,355.65 183.58,355.42 C 183.98,355.19 184.42,354.92 184.83,354.67 C 185.25,354.42 185.69,354.15 186.08,353.92 C 186.48,353.69 186.83,353.50 187.21,353.29 C 187.58,353.08 187.94,352.90 188.33,352.67 C 188.73,352.44 189.17,352.17 189.58,351.92 C 190.00,351.67 190.41,351.42 190.83,351.17 C 191.26,350.91 191.72,350.87 192.12,350.38 C 192.53,349.88 192.97,348.91 193.29,348.21 C 193.62,347.51 193.84,346.93 194.08,346.17 C 194.33,345.40 194.57,344.47 194.75,343.63 C 194.93,342.78 195.05,341.99 195.17,341.08 C 195.28,340.17 195.42,339.12 195.46,338.17 C 195.49,337.22 195.42,336.35 195.38,335.38 C 195.33,334.40 195.28,333.34 195.17,332.33 C 195.05,331.33 194.83,330.15 194.67,329.33 C 194.50,328.52 194.33,328.08 194.17,327.46 C 194.00,326.83 193.83,326.15 193.67,325.58 C 193.50,325.02 193.33,324.58 193.17,324.08 C 193.00,323.58 192.83,323.04 192.67,322.58 C 192.50,322.12 192.33,321.75 192.17,321.33 C 192.00,320.92 191.83,320.48 191.67,320.08 C 191.50,319.69 191.33,319.33 191.17,318.96 C 191.00,318.58 190.83,318.19 190.67,317.83 C 190.50,317.48 190.33,317.17 190.17,316.83 C 190.00,316.50 189.83,316.17 189.67,315.83 C 189.50,315.50 189.33,315.17 189.17,314.83 C 189.00,314.50 188.83,314.17 188.67,313.83 C 188.50,313.50 188.35,313.19 188.17,312.83 C 187.98,312.48 187.75,312.08 187.54,311.71 C 187.33,311.33 187.15,310.98 186.92,310.58 C 186.69,310.19 186.42,309.75 186.17,309.33 C 185.92,308.92 185.92,308.76 185.42,308.08 C 184.91,307.41 183.91,306.20 183.12,305.29 C 182.34,304.38 181.53,303.53 180.71,302.62 C 179.88,301.72 179.03,300.74 178.17,299.83 C 177.30,298.92 176.37,298.03 175.50,297.17 C 174.63,296.30 173.83,295.45 172.96,294.62 C 172.09,293.80 171.16,292.99 170.29,292.21 C 169.42,291.42 168.62,290.66 167.75,289.92 C 166.88,289.17 165.72,288.22 165.08,287.75 C 164.45,287.28 164.35,287.33 163.96,287.12 C 163.56,286.92 163.10,286.69 162.71,286.50 C 162.31,286.31 162.15,286.17 161.58,286.00 C 161.02,285.83 160.08,285.62 159.33,285.50 C 158.58,285.38 157.83,285.33 157.08,285.25 C 156.33,285.17 155.58,285.04 154.83,285.00 C 154.08,284.96 153.33,285.00 152.58,285.00 Z M 371.58,242.50 C 371.04,242.50 370.52,242.44 369.96,242.50 C 369.40,242.56 368.79,242.75 368.21,242.88 C 367.63,243.00 367.26,242.83 366.46,243.25 C 365.66,243.67 364.35,244.67 363.42,245.42 C 362.49,246.16 361.76,246.90 360.88,247.71 C 359.99,248.51 358.99,249.38 358.08,250.25 C 357.17,251.12 356.28,252.05 355.42,252.92 C 354.55,253.78 353.70,254.59 352.88,255.46 C 352.05,256.33 351.26,257.24 350.46,258.12 C 349.65,259.01 348.83,259.88 348.04,260.79 C 347.26,261.70 346.28,262.89 345.75,263.58 C 345.22,264.28 345.17,264.50 344.88,264.96 C 344.58,265.42 344.25,265.92 344.00,266.33 C 343.75,266.75 343.58,267.08 343.38,267.46 C 343.17,267.83 342.96,268.21 342.75,268.58 C 342.54,268.96 342.33,269.33 342.12,269.71 C 341.92,270.08 341.69,270.48 341.50,270.83 C 341.31,271.19 341.17,271.48 341.00,271.83 C 340.83,272.19 340.67,272.58 340.50,272.96 C 340.33,273.33 340.17,273.71 340.00,274.08 C 339.83,274.46 339.67,274.83 339.50,275.21 C 339.33,275.58 339.17,275.94 339.00,276.33 C 338.83,276.73 338.67,277.17 338.50,277.58 C 338.33,278.00 338.17,278.38 338.00,278.83 C 337.83,279.29 337.67,279.83 337.50,280.33 C 337.33,280.83 337.17,281.27 337.00,281.83 C 336.83,282.40 336.67,283.08 336.50,283.71 C 336.33,284.33 336.17,284.79 336.00,285.58 C 335.83,286.38 335.62,287.50 335.50,288.46 C 335.38,289.42 335.33,290.33 335.25,291.33 C 335.17,292.33 335.04,293.42 335.00,294.46 C 334.96,295.50 335.00,296.58 335.00,297.58 C 335.00,298.58 334.96,299.50 335.00,300.46 C 335.04,301.42 335.17,302.46 335.25,303.33 C 335.33,304.21 335.38,304.92 335.50,305.71 C 335.62,306.50 335.83,307.46 336.00,308.08 C 336.17,308.71 336.28,308.95 336.50,309.46 C 336.72,309.97 337.01,310.65 337.29,311.12 C 337.58,311.60 337.90,311.90 338.21,312.29 C 338.51,312.68 338.78,313.09 339.12,313.46 C 339.47,313.83 339.90,314.15 340.29,314.50 C 340.68,314.85 340.92,315.22 341.46,315.54 C 341.99,315.87 342.82,316.19 343.50,316.46 C 344.18,316.72 344.82,316.92 345.54,317.12 C 346.26,317.33 347.12,317.58 347.83,317.67 C 348.55,317.76 349.17,317.67 349.83,317.67 C 350.50,317.67 351.17,317.71 351.83,317.67 C 352.50,317.62 353.17,317.50 353.83,317.42 C 354.50,317.33 355.15,317.31 355.83,317.17 C 356.52,317.02 357.38,316.75 357.96,316.54 C 358.54,316.33 358.88,316.12 359.33,315.92 C 359.79,315.71 360.27,315.50 360.71,315.29 C 361.15,315.08 361.54,314.88 361.96,314.67 C 362.38,314.46 362.79,314.25 363.21,314.04 C 363.63,313.83 364.02,313.65 364.46,313.42 C 364.90,313.19 365.40,312.92 365.83,312.67 C 366.27,312.42 366.69,312.15 367.08,311.92 C 367.48,311.69 367.83,311.50 368.21,311.29 C 368.58,311.08 368.96,310.88 369.33,310.67 C 369.71,310.46 370.08,310.25 370.46,310.04 C 370.83,309.83 371.19,309.65 371.58,309.42 C 371.98,309.19 372.42,308.92 372.83,308.67 C 373.25,308.42 373.69,308.15 374.08,307.92 C 374.48,307.69 374.83,307.50 375.21,307.29 C 375.58,307.08 375.94,306.90 376.33,306.67 C 376.73,306.44 377.17,306.17 377.58,305.92 C 378.00,305.67 378.42,305.42 378.83,305.17 C 379.25,304.92 379.67,304.67 380.08,304.42 C 380.50,304.17 380.94,303.90 381.33,303.67 C 381.73,303.44 382.08,303.25 382.46,303.04 C 382.83,302.83 383.19,302.65 383.58,302.42 C 383.98,302.19 384.42,301.92 384.83,301.67 C 385.25,301.42 385.69,301.15 386.08,300.92 C 386.48,300.69 386.83,300.50 387.21,300.29 C 387.58,300.08 387.96,299.88 388.33,299.67 C 388.71,299.46 389.08,299.25 389.46,299.04 C 389.83,298.83 390.19,298.65 390.58,298.42 C 390.98,298.19 391.42,297.92 391.83,297.67 C 392.25,297.42 392.67,297.17 393.08,296.92 C 393.50,296.67 393.92,296.42 394.33,296.17 C 394.75,295.92 395.12,295.72 395.58,295.42 C 396.05,295.12 396.63,294.74 397.12,294.38 C 397.62,294.01 398.05,293.62 398.54,293.21 C 399.03,292.80 399.59,292.37 400.08,291.92 C 400.58,291.47 401.05,290.95 401.50,290.50 C 401.95,290.05 402.38,289.68 402.79,289.21 C 403.20,288.74 403.59,288.16 403.96,287.67 C 404.33,287.17 404.67,286.78 405.00,286.25 C 405.33,285.72 405.66,285.01 405.92,284.46 C 406.17,283.91 406.33,283.54 406.54,282.96 C 406.75,282.38 407.02,281.60 407.17,280.96 C 407.31,280.31 407.33,279.75 407.42,279.08 C 407.50,278.42 407.62,277.67 407.67,276.96 C 407.71,276.25 407.67,275.52 407.67,274.83 C 407.67,274.15 407.71,273.50 407.67,272.83 C 407.62,272.17 407.50,271.46 407.42,270.83 C 407.33,270.21 407.29,269.67 407.17,269.08 C 407.04,268.50 406.83,267.83 406.67,267.33 C 406.50,266.83 406.47,266.63 406.17,266.08 C 405.87,265.53 405.33,264.66 404.88,264.04 C 404.42,263.42 403.93,262.93 403.46,262.38 C 402.99,261.82 402.53,261.24 402.04,260.71 C 401.55,260.17 401.01,259.68 400.50,259.17 C 399.99,258.65 399.49,258.12 398.96,257.62 C 398.42,257.13 397.87,256.70 397.29,256.21 C 396.72,255.72 396.12,255.16 395.50,254.67 C 394.88,254.17 394.09,253.59 393.58,253.25 C 393.08,252.91 392.83,252.83 392.46,252.62 C 392.08,252.42 391.73,252.23 391.33,252.00 C 390.94,251.77 390.50,251.50 390.08,251.25 C 389.67,251.00 389.25,250.75 388.83,250.50 C 388.42,250.25 388.00,250.00 387.58,249.75 C 387.17,249.50 386.73,249.23 386.33,249.00 C 385.94,248.77 385.58,248.58 385.21,248.38 C 384.83,248.17 384.48,247.98 384.08,247.75 C 383.69,247.52 383.25,247.25 382.83,247.00 C 382.42,246.75 381.98,246.48 381.58,246.25 C 381.19,246.02 380.83,245.83 380.46,245.62 C 380.08,245.42 379.73,245.23 379.33,245.00 C 378.94,244.77 378.56,244.50 378.08,244.25 C 377.60,244.00 377.00,243.71 376.46,243.50 C 375.92,243.29 375.38,243.17 374.83,243.00 C 374.29,242.83 373.75,242.58 373.21,242.50 C 372.67,242.42 372.13,242.50 371.58,242.50 Z M 136.08,221.00 C 134.90,221.00 133.75,220.96 132.58,221.00 C 131.42,221.04 130.19,221.17 129.08,221.25 C 127.98,221.33 127.00,221.38 125.96,221.50 C 124.92,221.62 123.58,221.83 122.83,222.00 C 122.08,222.17 121.92,222.33 121.46,222.50 C 121.00,222.67 120.50,222.83 120.08,223.00 C 119.67,223.17 119.35,223.31 118.96,223.50 C 118.56,223.69 118.10,223.92 117.71,224.12 C 117.31,224.33 117.09,224.41 116.58,224.75 C 116.08,225.09 115.28,225.67 114.67,226.17 C 114.05,226.66 113.49,227.17 112.88,227.71 C 112.26,228.24 111.58,228.80 110.96,229.37 C 110.34,229.95 109.78,230.55 109.17,231.17 C 108.55,231.78 107.87,232.42 107.25,233.08 C 106.63,233.74 106.03,234.47 105.46,235.12 C 104.88,235.78 104.33,236.38 103.79,237.04 C 103.26,237.70 102.63,238.53 102.25,239.08 C 101.87,239.63 101.75,239.90 101.50,240.33 C 101.25,240.77 100.98,241.27 100.75,241.71 C 100.52,242.15 100.33,242.54 100.12,242.96 C 99.92,243.37 99.69,243.81 99.50,244.21 C 99.31,244.60 99.17,244.94 99.00,245.33 C 98.83,245.73 98.67,246.17 98.50,246.58 C 98.33,247.00 98.17,247.37 98.00,247.83 C 97.83,248.29 97.67,248.83 97.50,249.33 C 97.33,249.83 97.17,250.29 97.00,250.83 C 96.83,251.37 96.67,252.00 96.50,252.58 C 96.33,253.17 96.17,253.56 96.00,254.33 C 95.83,255.10 95.67,256.25 95.50,257.21 C 95.33,258.17 95.17,258.17 95.00,260.08 C 94.83,262.00 94.62,265.83 94.50,268.71 C 94.38,271.58 94.33,274.42 94.25,277.33 C 94.17,280.25 94.04,283.25 94.00,286.21 C 93.96,289.17 94.00,292.19 94.00,295.08 C 94.00,297.98 93.96,300.75 94.00,303.58 C 94.04,306.42 94.17,309.44 94.25,312.08 C 94.33,314.73 94.35,316.98 94.50,319.46 C 94.65,321.94 94.92,325.44 95.12,326.96 C 95.33,328.48 95.49,327.99 95.75,328.58 C 96.01,329.17 96.34,329.97 96.67,330.50 C 96.99,331.03 97.34,331.34 97.71,331.79 C 98.08,332.24 98.47,332.76 98.88,333.21 C 99.28,333.66 99.74,334.07 100.17,334.50 C 100.60,334.93 101.01,335.38 101.46,335.79 C 101.91,336.20 102.42,336.59 102.88,336.96 C 103.33,337.33 103.72,337.67 104.17,338.00 C 104.62,338.33 105.14,338.64 105.58,338.92 C 106.03,339.19 106.42,339.42 106.83,339.67 C 107.25,339.92 107.69,340.19 108.08,340.42 C 108.48,340.65 108.83,340.83 109.21,341.04 C 109.58,341.25 109.96,341.46 110.33,341.67 C 110.71,341.88 111.08,342.08 111.46,342.29 C 111.83,342.50 112.19,342.69 112.58,342.92 C 112.98,343.15 113.42,343.42 113.83,343.67 C 114.25,343.92 114.69,344.19 115.08,344.42 C 115.48,344.65 115.83,344.83 116.21,345.04 C 116.58,345.25 116.96,345.46 117.33,345.67 C 117.71,345.87 118.08,346.08 118.46,346.29 C 118.83,346.50 119.19,346.69 119.58,346.92 C 119.98,347.15 120.42,347.42 120.83,347.67 C 121.25,347.92 121.68,348.24 122.08,348.42 C 122.49,348.60 122.88,348.76 123.25,348.75 C 123.62,348.74 123.98,348.50 124.29,348.33 C 124.60,348.17 124.87,347.97 125.12,347.75 C 125.38,347.53 125.60,347.28 125.83,347.00 C 126.06,346.72 126.30,347.35 126.50,346.08 C 126.70,344.82 126.88,341.70 127.04,339.42 C 127.20,337.13 127.34,334.78 127.46,332.38 C 127.58,329.97 127.66,327.42 127.75,324.96 C 127.84,322.49 127.92,319.94 128.00,317.58 C 128.08,315.23 128.13,313.10 128.25,310.83 C 128.37,308.57 128.56,306.27 128.71,304.00 C 128.86,301.73 129.01,299.49 129.17,297.21 C 129.33,294.93 129.50,291.69 129.67,290.33 C 129.83,288.98 129.98,289.52 130.17,289.08 C 130.35,288.65 130.58,288.12 130.79,287.71 C 131.00,287.29 131.17,286.99 131.42,286.58 C 131.66,286.17 131.95,285.67 132.25,285.25 C 132.55,284.83 132.85,284.49 133.21,284.04 C 133.57,283.60 133.99,283.05 134.42,282.58 C 134.84,282.12 135.31,281.69 135.75,281.25 C 136.19,280.81 136.58,280.34 137.08,279.92 C 137.59,279.49 138.24,279.09 138.79,278.71 C 139.34,278.33 139.60,277.97 140.38,277.63 C 141.15,277.28 142.47,276.91 143.46,276.67 C 144.45,276.42 145.33,276.33 146.33,276.17 C 147.33,276.00 148.46,275.75 149.46,275.67 C 150.46,275.58 151.35,275.67 152.33,275.67 C 153.31,275.67 154.33,275.62 155.33,275.67 C 156.33,275.71 157.38,275.83 158.33,275.92 C 159.29,276.00 160.15,276.02 161.08,276.17 C 162.02,276.31 163.23,276.58 163.96,276.79 C 164.69,277.00 164.96,277.21 165.46,277.42 C 165.96,277.62 166.50,277.83 166.96,278.04 C 167.42,278.25 167.77,278.44 168.21,278.67 C 168.65,278.90 169.15,279.17 169.58,279.42 C 170.02,279.67 170.15,279.65 170.83,280.17 C 171.51,280.68 172.74,281.70 173.67,282.50 C 174.59,283.30 175.45,284.12 176.38,284.96 C 177.30,285.80 178.28,286.66 179.21,287.54 C 180.13,288.42 180.99,289.33 181.92,290.25 C 182.84,291.17 183.83,292.12 184.75,293.08 C 185.67,294.05 186.58,295.08 187.46,296.04 C 188.34,297.01 189.20,297.91 190.04,298.88 C 190.88,299.84 191.92,301.09 192.50,301.83 C 193.08,302.58 193.17,302.83 193.50,303.33 C 193.83,303.83 194.21,304.38 194.50,304.83 C 194.79,305.29 195.00,305.67 195.25,306.08 C 195.50,306.50 195.77,306.94 196.00,307.33 C 196.23,307.73 196.42,308.08 196.62,308.46 C 196.83,308.83 197.04,309.21 197.25,309.58 C 197.46,309.96 197.67,310.31 197.88,310.71 C 198.08,311.10 198.31,311.56 198.50,311.96 C 198.69,312.35 198.83,312.71 199.00,313.08 C 199.17,313.46 199.33,313.83 199.50,314.21 C 199.67,314.58 199.83,314.94 200.00,315.33 C 200.17,315.73 200.33,316.17 200.50,316.58 C 200.67,317.00 200.83,317.40 201.00,317.83 C 201.17,318.27 201.33,318.75 201.50,319.21 C 201.67,319.67 201.83,320.08 202.00,320.58 C 202.17,321.08 202.33,321.67 202.50,322.21 C 202.67,322.75 202.83,323.21 203.00,323.83 C 203.17,324.46 203.33,325.25 203.50,325.96 C 203.67,326.67 203.83,326.31 204.00,328.08 C 204.17,329.85 204.33,333.75 204.50,336.58 C 204.67,339.42 204.83,342.25 205.00,345.08 C 205.17,347.92 205.33,350.75 205.50,353.58 C 205.67,356.42 205.83,359.31 206.00,362.08 C 206.17,364.85 206.31,367.48 206.50,370.21 C 206.69,372.94 206.92,375.79 207.12,378.46 C 207.33,381.13 207.49,383.58 207.75,386.21 C 208.01,388.84 208.34,392.67 208.67,394.25 C 208.99,395.83 209.34,395.17 209.71,395.67 C 210.08,396.16 210.47,396.74 210.87,397.21 C 211.28,397.68 211.72,398.05 212.17,398.50 C 212.62,398.95 213.09,399.47 213.58,399.92 C 214.08,400.37 214.63,400.80 215.12,401.21 C 215.62,401.62 216.05,402.01 216.54,402.38 C 217.03,402.74 217.62,403.12 218.08,403.42 C 218.55,403.72 218.92,403.92 219.33,404.17 C 219.75,404.42 220.17,404.67 220.58,404.92 C 221.00,405.17 221.42,405.42 221.83,405.67 C 222.25,405.92 222.69,406.19 223.08,406.42 C 223.48,406.65 223.83,406.83 224.21,407.04 C 224.58,407.25 224.96,407.46 225.33,407.67 C 225.71,407.87 226.08,408.08 226.46,408.29 C 226.83,408.50 227.19,408.69 227.58,408.92 C 227.98,409.15 228.42,409.42 228.83,409.67 C 229.25,409.92 229.69,410.19 230.08,410.42 C 230.48,410.65 230.83,410.83 231.21,411.04 C 231.58,411.25 231.96,411.46 232.33,411.67 C 232.71,411.87 233.08,412.08 233.46,412.29 C 233.83,412.50 234.19,412.69 234.58,412.92 C 234.98,413.15 235.42,413.42 235.83,413.67 C 236.25,413.92 236.69,414.19 237.08,414.42 C 237.48,414.65 237.83,414.83 238.21,415.04 C 238.58,415.25 238.96,415.46 239.33,415.67 C 239.71,415.87 240.08,416.08 240.46,416.29 C 240.83,416.50 241.19,416.69 241.58,416.92 C 241.98,417.15 242.42,417.42 242.83,417.67 C 243.25,417.92 243.69,418.19 244.08,418.42 C 244.47,418.65 244.81,418.83 245.17,419.04 C 245.52,419.25 245.86,419.51 246.21,419.67 C 246.56,419.83 246.92,419.91 247.25,420.00 C 247.58,420.09 247.90,420.18 248.17,420.21 C 248.43,420.24 248.63,421.41 248.83,420.17 C 249.03,418.92 249.26,415.28 249.38,412.75 C 249.49,410.22 249.51,407.72 249.54,404.96 C 249.58,402.19 249.60,399.14 249.58,396.17 C 249.56,393.19 249.49,390.24 249.42,387.12 C 249.35,384.01 249.29,380.67 249.17,377.46 C 249.04,374.24 248.83,371.10 248.67,367.83 C 248.50,364.56 248.33,361.17 248.17,357.83 C 248.00,354.50 247.83,350.00 247.67,347.83 C 247.50,345.67 247.33,345.83 247.17,344.83 C 247.00,343.83 246.83,342.73 246.67,341.83 C 246.50,340.94 246.33,340.25 246.17,339.46 C 246.00,338.67 245.83,337.83 245.67,337.08 C 245.50,336.33 245.33,335.67 245.17,334.96 C 245.00,334.25 244.83,333.50 244.67,332.83 C 244.50,332.17 244.33,331.58 244.17,330.96 C 244.00,330.33 243.83,329.69 243.67,329.08 C 243.50,328.48 243.33,327.92 243.17,327.33 C 243.00,326.75 242.83,326.15 242.67,325.58 C 242.50,325.02 242.33,324.50 242.17,323.96 C 242.00,323.42 241.83,322.83 241.67,322.33 C 241.50,321.83 241.33,321.42 241.17,320.96 C 241.00,320.50 240.83,320.04 240.67,319.58 C 240.50,319.12 240.33,318.67 240.17,318.21 C 240.00,317.75 239.83,317.27 239.67,316.83 C 239.50,316.40 239.33,316.00 239.17,315.58 C 239.00,315.17 238.83,314.75 238.67,314.33 C 238.50,313.92 238.33,313.50 238.17,313.08 C 238.00,312.67 237.83,312.25 237.67,311.83 C 237.50,311.42 237.33,311.00 237.17,310.58 C 237.00,310.17 236.83,309.73 236.67,309.33 C 236.50,308.94 236.33,308.58 236.17,308.21 C 236.00,307.83 235.83,307.46 235.67,307.08 C 235.50,306.71 235.33,306.33 235.17,305.96 C 235.00,305.58 234.83,305.19 234.67,304.83 C 234.50,304.48 234.33,304.17 234.17,303.83 C 234.00,303.50 233.83,303.17 233.67,302.83 C 233.50,302.50 233.33,302.17 233.17,301.83 C 233.00,301.50 232.83,301.17 232.67,300.83 C 232.50,300.50 232.33,300.17 232.17,299.83 C 232.00,299.50 231.83,299.17 231.67,298.83 C 231.50,298.50 231.33,298.17 231.17,297.83 C 231.00,297.50 230.83,297.17 230.67,296.83 C 230.50,296.50 230.33,296.17 230.17,295.83 C 230.00,295.50 229.83,295.17 229.67,294.83 C 229.50,294.50 229.35,294.19 229.17,293.83 C 228.98,293.48 228.75,293.08 228.54,292.71 C 228.33,292.33 228.15,291.98 227.92,291.58 C 227.69,291.19 227.42,290.75 227.17,290.33 C 226.92,289.92 226.67,289.50 226.42,289.08 C 226.17,288.67 225.92,288.25 225.67,287.83 C 225.42,287.42 225.19,287.02 224.92,286.58 C 224.65,286.15 224.33,285.67 224.04,285.21 C 223.75,284.75 223.46,284.29 223.17,283.83 C 222.88,283.38 222.58,282.92 222.29,282.46 C 222.00,282.00 221.71,281.54 221.42,281.08 C 221.13,280.62 220.83,280.17 220.54,279.71 C 220.25,279.25 220.00,278.83 219.67,278.33 C 219.33,277.83 218.92,277.25 218.54,276.71 C 218.17,276.17 217.81,275.65 217.42,275.08 C 217.02,274.52 216.58,273.92 216.17,273.33 C 215.75,272.75 215.42,272.25 214.92,271.58 C 214.42,270.92 213.75,270.08 213.17,269.33 C 212.58,268.58 212.22,268.05 211.42,267.08 C 210.62,266.12 209.41,264.70 208.38,263.54 C 207.34,262.38 206.33,261.33 205.21,260.12 C 204.09,258.92 202.87,257.58 201.67,256.33 C 200.47,255.09 199.22,253.89 198.00,252.67 C 196.78,251.44 195.58,250.20 194.33,249.00 C 193.09,247.80 191.72,246.56 190.54,245.46 C 189.36,244.36 188.37,243.41 187.25,242.42 C 186.13,241.42 184.76,240.26 183.83,239.50 C 182.91,238.74 182.42,238.42 181.71,237.88 C 181.00,237.33 180.21,236.71 179.58,236.25 C 178.96,235.79 178.50,235.50 177.96,235.12 C 177.42,234.75 176.83,234.33 176.33,234.00 C 175.83,233.67 175.42,233.42 174.96,233.12 C 174.50,232.83 174.02,232.52 173.58,232.25 C 173.15,231.98 172.75,231.75 172.33,231.50 C 171.92,231.25 171.48,230.98 171.08,230.75 C 170.69,230.52 170.33,230.33 169.96,230.12 C 169.58,229.92 169.19,229.69 168.83,229.50 C 168.48,229.31 168.17,229.17 167.83,229.00 C 167.50,228.83 167.17,228.67 166.83,228.50 C 166.50,228.33 166.17,228.17 165.83,228.00 C 165.50,227.83 165.17,227.67 164.83,227.50 C 164.50,227.33 164.17,227.17 163.83,227.00 C 163.50,226.83 163.17,226.67 162.83,226.50 C 162.50,226.33 162.19,226.17 161.83,226.00 C 161.48,225.83 161.08,225.67 160.71,225.50 C 160.33,225.33 159.98,225.17 159.58,225.00 C 159.19,224.83 158.75,224.67 158.33,224.50 C 157.92,224.33 157.54,224.17 157.08,224.00 C 156.62,223.83 156.08,223.67 155.58,223.50 C 155.08,223.33 154.65,223.17 154.08,223.00 C 153.52,222.83 152.83,222.67 152.21,222.50 C 151.58,222.33 151.23,222.17 150.33,222.00 C 149.44,221.83 148.00,221.62 146.83,221.50 C 145.67,221.38 144.52,221.33 143.33,221.25 C 142.15,221.17 140.92,221.04 139.71,221.00 C 138.50,220.96 137.27,221.00 136.08,221.00 Z M 405.83,169.75 C 405.55,168.07 405.26,166.43 404.92,164.83 C 404.57,163.24 404.16,160.85 403.75,160.17 C 403.34,159.49 402.89,160.51 402.46,160.75 C 402.03,160.99 401.60,161.33 401.17,161.62 C 400.73,161.92 400.24,162.25 399.83,162.50 C 399.42,162.75 399.08,162.92 398.71,163.12 C 398.33,163.33 397.96,163.54 397.58,163.75 C 397.21,163.96 396.83,164.17 396.46,164.38 C 396.08,164.58 395.73,164.77 395.33,165.00 C 394.94,165.23 394.50,165.50 394.08,165.75 C 393.67,166.00 393.25,166.25 392.83,166.50 C 392.42,166.75 392.00,167.00 391.58,167.25 C 391.17,167.50 390.75,167.75 390.33,168.00 C 389.92,168.25 389.50,168.50 389.08,168.75 C 388.67,169.00 388.25,169.25 387.83,169.50 C 387.42,169.75 387.00,170.00 386.58,170.25 C 386.17,170.50 385.73,170.77 385.33,171.00 C 384.94,171.23 384.58,171.42 384.21,171.62 C 383.83,171.83 383.46,172.04 383.08,172.25 C 382.71,172.46 382.33,172.67 381.96,172.88 C 381.58,173.08 381.21,173.29 380.83,173.50 C 380.46,173.71 380.08,173.92 379.71,174.12 C 379.33,174.33 378.96,174.54 378.58,174.75 C 378.21,174.96 377.83,175.17 377.46,175.38 C 377.08,175.58 376.71,175.79 376.33,176.00 C 375.96,176.21 375.58,176.42 375.21,176.62 C 374.83,176.83 374.48,177.02 374.08,177.25 C 373.69,177.48 373.25,177.75 372.83,178.00 C 372.42,178.25 371.98,178.52 371.58,178.75 C 371.19,178.98 370.83,179.17 370.46,179.38 C 370.08,179.58 369.71,179.79 369.33,180.00 C 368.96,180.21 368.58,180.42 368.21,180.62 C 367.83,180.83 367.48,181.02 367.08,181.25 C 366.69,181.48 366.25,181.75 365.83,182.00 C 365.42,182.25 364.98,182.52 364.58,182.75 C 364.19,182.98 363.83,183.17 363.46,183.38 C 363.08,183.58 362.73,183.77 362.33,184.00 C 361.94,184.23 361.50,184.50 361.08,184.75 C 360.67,185.00 360.27,185.23 359.83,185.50 C 359.40,185.77 358.92,186.08 358.46,186.38 C 358.00,186.67 357.56,186.94 357.08,187.25 C 356.60,187.56 356.08,187.92 355.58,188.25 C 355.08,188.58 354.65,188.85 354.08,189.25 C 353.52,189.65 352.83,190.17 352.21,190.62 C 351.58,191.08 351.32,191.18 350.33,192.00 C 349.35,192.82 347.62,194.34 346.29,195.54 C 344.97,196.74 343.72,197.94 342.38,199.21 C 341.03,200.47 339.58,201.80 338.21,203.12 C 336.84,204.45 335.51,205.82 334.17,207.17 C 332.82,208.51 331.45,209.84 330.12,211.21 C 328.80,212.58 327.49,214.01 326.21,215.37 C 324.92,216.74 323.66,218.05 322.42,219.42 C 321.17,220.78 319.61,222.56 318.75,223.58 C 317.89,224.61 317.75,224.92 317.25,225.58 C 316.75,226.25 316.21,226.96 315.75,227.58 C 315.29,228.21 314.92,228.75 314.50,229.33 C 314.08,229.92 313.65,230.52 313.25,231.08 C 312.85,231.65 312.50,232.17 312.12,232.71 C 311.75,233.25 311.33,233.83 311.00,234.33 C 310.67,234.83 310.42,235.25 310.12,235.71 C 309.83,236.17 309.54,236.62 309.25,237.08 C 308.96,237.54 308.67,238.00 308.38,238.46 C 308.08,238.92 307.77,239.40 307.50,239.83 C 307.23,240.27 307.00,240.67 306.75,241.08 C 306.50,241.50 306.23,241.94 306.00,242.33 C 305.77,242.73 305.58,243.08 305.38,243.46 C 305.17,243.83 304.96,244.21 304.75,244.58 C 304.54,244.96 304.33,245.33 304.12,245.71 C 303.92,246.08 303.71,246.46 303.50,246.83 C 303.29,247.21 303.08,247.58 302.88,247.96 C 302.67,248.33 302.46,248.71 302.25,249.08 C 302.04,249.46 301.83,249.83 301.62,250.21 C 301.42,250.58 301.21,250.96 301.00,251.33 C 300.79,251.71 300.58,252.08 300.38,252.46 C 300.17,252.83 299.96,253.21 299.75,253.58 C 299.54,253.96 299.33,254.31 299.12,254.71 C 298.92,255.10 298.69,255.56 298.50,255.96 C 298.31,256.35 298.17,256.71 298.00,257.08 C 297.83,257.46 297.67,257.83 297.50,258.21 C 297.33,258.58 297.17,258.96 297.00,259.33 C 296.83,259.71 296.67,260.08 296.50,260.46 C 296.33,260.83 296.17,261.21 296.00,261.58 C 295.83,261.96 295.67,262.33 295.50,262.71 C 295.33,263.08 295.17,263.46 295.00,263.83 C 294.83,264.21 294.67,264.58 294.50,264.96 C 294.33,265.33 294.17,265.69 294.00,266.08 C 293.83,266.48 293.67,266.92 293.50,267.33 C 293.33,267.75 293.17,268.17 293.00,268.58 C 292.83,269.00 292.67,269.42 292.50,269.83 C 292.33,270.25 292.17,270.65 292.00,271.08 C 291.83,271.52 291.67,272.00 291.50,272.46 C 291.33,272.92 291.17,273.38 291.00,273.83 C 290.83,274.29 290.67,274.75 290.50,275.21 C 290.33,275.67 290.17,276.12 290.00,276.58 C 289.83,277.04 289.67,277.50 289.50,277.96 C 289.33,278.42 289.17,278.83 289.00,279.33 C 288.83,279.83 288.67,280.42 288.50,280.96 C 288.33,281.50 288.17,282.02 288.00,282.58 C 287.83,283.15 287.67,283.75 287.50,284.33 C 287.33,284.92 287.17,285.48 287.00,286.08 C 286.83,286.69 286.67,287.33 286.50,287.96 C 286.33,288.58 286.17,289.17 286.00,289.83 C 285.83,290.50 285.67,291.25 285.50,291.96 C 285.33,292.67 285.17,293.31 285.00,294.08 C 284.83,294.85 284.67,295.75 284.50,296.58 C 284.33,297.42 284.17,297.75 284.00,299.08 C 283.83,300.42 283.62,302.75 283.50,304.58 C 283.38,306.42 283.33,308.21 283.25,310.08 C 283.17,311.96 283.04,313.92 283.00,315.83 C 282.96,317.75 283.00,319.69 283.00,321.58 C 283.00,323.48 282.96,325.33 283.00,327.21 C 283.04,329.08 283.17,331.04 283.25,332.83 C 283.33,334.62 283.38,336.25 283.50,337.96 C 283.62,339.67 283.83,341.92 284.00,343.08 C 284.17,344.25 284.33,344.33 284.50,344.96 C 284.67,345.58 284.83,346.27 285.00,346.83 C 285.17,347.40 285.33,347.83 285.50,348.33 C 285.67,348.83 285.83,349.38 286.00,349.83 C 286.17,350.29 286.33,350.67 286.50,351.08 C 286.67,351.50 286.83,351.94 287.00,352.33 C 287.17,352.73 287.31,353.06 287.50,353.46 C 287.69,353.85 287.92,354.29 288.12,354.71 C 288.33,355.13 288.52,355.52 288.75,355.96 C 288.98,356.40 289.25,356.90 289.50,357.33 C 289.75,357.77 289.89,358.06 290.25,358.58 C 290.61,359.11 291.17,359.88 291.67,360.50 C 292.16,361.12 292.67,361.67 293.21,362.29 C 293.74,362.91 294.30,363.59 294.88,364.21 C 295.45,364.83 296.09,365.42 296.67,366.00 C 297.24,366.58 297.76,367.13 298.33,367.67 C 298.91,368.20 299.55,368.72 300.12,369.21 C 300.70,369.70 301.22,370.17 301.79,370.62 C 302.37,371.08 303.10,371.60 303.58,371.92 C 304.07,372.24 304.33,372.33 304.71,372.54 C 305.08,372.75 305.48,372.98 305.83,373.17 C 306.19,373.35 306.46,373.50 306.83,373.67 C 307.21,373.83 307.67,374.00 308.08,374.17 C 308.50,374.33 308.81,374.50 309.33,374.67 C 309.85,374.83 310.58,375.00 311.21,375.17 C 311.83,375.33 312.38,375.50 313.08,375.67 C 313.79,375.83 314.67,376.04 315.46,376.17 C 316.25,376.29 316.92,376.33 317.83,376.42 C 318.75,376.50 319.92,376.62 320.96,376.67 C 322.00,376.71 323.04,376.67 324.08,376.67 C 325.12,376.67 326.17,376.71 327.21,376.67 C 328.25,376.62 329.35,376.50 330.33,376.42 C 331.31,376.33 332.17,376.29 333.08,376.17 C 334.00,376.04 335.00,375.83 335.83,375.67 C 336.67,375.50 337.33,375.33 338.08,375.17 C 338.83,375.00 339.69,374.83 340.33,374.67 C 340.98,374.50 341.42,374.33 341.96,374.17 C 342.50,374.00 343.08,373.83 343.58,373.67 C 344.08,373.50 344.50,373.33 344.96,373.17 C 345.42,373.00 345.92,372.83 346.33,372.67 C 346.75,372.50 347.08,372.33 347.46,372.17 C 347.83,372.00 348.19,371.83 348.58,371.67 C 348.98,371.50 349.40,371.35 349.83,371.17 C 350.27,370.98 350.77,370.75 351.21,370.54 C 351.65,370.33 352.04,370.12 352.46,369.92 C 352.88,369.71 353.29,369.50 353.71,369.29 C 354.13,369.08 354.54,368.87 354.96,368.67 C 355.38,368.46 355.79,368.25 356.21,368.04 C 356.63,367.83 357.02,367.65 357.46,367.42 C 357.90,367.19 358.40,366.92 358.83,366.67 C 359.27,366.42 359.69,366.15 360.08,365.92 C 360.48,365.69 360.83,365.50 361.21,365.29 C 361.58,365.08 361.96,364.87 362.33,364.67 C 362.71,364.46 363.08,364.25 363.46,364.04 C 363.83,363.83 364.19,363.65 364.58,363.42 C 364.98,363.19 365.42,362.92 365.83,362.67 C 366.25,362.42 366.69,362.15 367.08,361.92 C 367.48,361.69 367.83,361.50 368.21,361.29 C 368.58,361.08 368.94,360.90 369.33,360.67 C 369.73,360.44 370.17,360.17 370.58,359.92 C 371.00,359.67 371.42,359.42 371.83,359.17 C 372.25,358.92 372.67,358.67 373.08,358.42 C 373.50,358.17 373.94,357.90 374.33,357.67 C 374.73,357.44 375.08,357.25 375.46,357.04 C 375.83,356.83 376.19,356.65 376.58,356.42 C 376.98,356.19 377.42,355.92 377.83,355.67 C 378.25,355.42 378.69,355.15 379.08,354.92 C 379.48,354.69 379.83,354.50 380.21,354.29 C 380.58,354.08 380.96,353.87 381.33,353.67 C 381.71,353.46 382.08,353.25 382.46,353.04 C 382.83,352.83 383.19,352.65 383.58,352.42 C 383.98,352.19 384.42,351.92 384.83,351.67 C 385.25,351.42 385.69,351.15 386.08,350.92 C 386.48,350.69 386.83,350.50 387.21,350.29 C 387.58,350.08 387.94,349.90 388.33,349.67 C 388.73,349.44 389.17,349.17 389.58,348.92 C 390.00,348.67 390.42,348.42 390.83,348.17 C 391.25,347.92 391.67,347.67 392.08,347.42 C 392.50,347.17 392.92,346.92 393.33,346.67 C 393.75,346.42 394.17,346.17 394.58,345.92 C 395.00,345.67 395.35,345.49 395.83,345.17 C 396.32,344.85 396.97,344.41 397.50,344.00 C 398.03,343.59 398.55,343.12 399.04,342.71 C 399.53,342.30 400.01,341.95 400.46,341.54 C 400.91,341.13 401.32,340.68 401.75,340.25 C 402.18,339.82 402.63,339.41 403.04,338.96 C 403.45,338.51 403.84,337.99 404.21,337.54 C 404.58,337.09 404.92,336.74 405.25,336.25 C 405.58,335.76 405.93,335.07 406.17,334.58 C 406.40,334.10 406.50,334.31 406.67,333.33 C 406.83,332.35 407.05,330.26 407.17,328.71 C 407.28,327.16 407.33,325.58 407.38,324.04 C 407.42,322.51 407.51,320.93 407.46,319.50 C 407.40,318.07 407.20,316.78 407.04,315.46 C 406.88,314.13 406.74,312.78 406.50,311.54 C 406.26,310.30 405.91,309.12 405.58,308.00 C 405.26,306.88 404.93,305.85 404.54,304.83 C 404.15,303.82 403.70,302.31 403.25,301.92 C 402.80,301.53 402.32,302.24 401.83,302.50 C 401.35,302.76 400.83,303.17 400.33,303.50 C 399.83,303.83 399.29,304.21 398.83,304.50 C 398.38,304.79 398.00,305.00 397.58,305.25 C 397.17,305.50 396.73,305.77 396.33,306.00 C 395.94,306.23 395.58,306.42 395.21,306.62 C 394.83,306.83 394.48,307.02 394.08,307.25 C 393.69,307.48 393.25,307.75 392.83,308.00 C 392.42,308.25 391.98,308.52 391.58,308.75 C 391.19,308.98 390.83,309.17 390.46,309.38 C 390.08,309.58 389.71,309.79 389.33,310.00 C 388.96,310.21 388.58,310.42 388.21,310.62 C 387.83,310.83 387.48,311.02 387.08,311.25 C 386.69,311.48 386.25,311.75 385.83,312.00 C 385.42,312.25 384.98,312.52 384.58,312.75 C 384.19,312.98 383.83,313.17 383.46,313.38 C 383.08,313.58 382.71,313.79 382.33,314.00 C 381.96,314.21 381.58,314.42 381.21,314.62 C 380.83,314.83 380.48,315.02 380.08,315.25 C 379.69,315.48 379.25,315.75 378.83,316.00 C 378.42,316.25 377.98,316.52 377.58,316.75 C 377.19,316.98 376.83,317.17 376.46,317.38 C 376.08,317.58 375.73,317.77 375.33,318.00 C 374.94,318.23 374.50,318.50 374.08,318.75 C 373.67,319.00 373.25,319.25 372.83,319.50 C 372.42,319.75 372.00,320.00 371.58,320.25 C 371.17,320.50 370.73,320.77 370.33,321.00 C 369.94,321.23 369.58,321.42 369.21,321.62 C 368.83,321.83 368.46,322.04 368.08,322.25 C 367.71,322.46 367.33,322.67 366.96,322.88 C 366.58,323.08 366.19,323.31 365.83,323.50 C 365.48,323.69 365.19,323.83 364.83,324.00 C 364.48,324.17 364.08,324.33 363.71,324.50 C 363.33,324.67 363.00,324.83 362.58,325.00 C 362.17,325.17 361.67,325.33 361.21,325.50 C 360.75,325.67 360.48,325.83 359.83,326.00 C 359.19,326.17 358.17,326.38 357.33,326.50 C 356.50,326.62 355.69,326.67 354.83,326.75 C 353.98,326.83 353.08,326.96 352.21,327.00 C 351.33,327.04 350.44,327.00 349.58,327.00 C 348.73,327.00 347.92,327.04 347.08,327.00 C 346.25,326.96 345.38,326.83 344.58,326.75 C 343.79,326.67 343.10,326.65 342.33,326.50 C 341.56,326.35 340.56,326.08 339.96,325.88 C 339.35,325.67 339.16,325.49 338.71,325.25 C 338.26,325.01 337.69,324.72 337.25,324.42 C 336.81,324.12 336.47,323.80 336.04,323.46 C 335.62,323.12 335.13,322.76 334.71,322.38 C 334.28,321.99 333.92,321.59 333.50,321.17 C 333.08,320.74 332.59,320.32 332.17,319.83 C 331.74,319.35 331.34,318.76 330.96,318.25 C 330.58,317.74 330.22,317.32 329.88,316.79 C 329.53,316.26 329.20,315.62 328.92,315.08 C 328.63,314.55 328.42,314.12 328.17,313.58 C 327.92,313.04 327.65,312.40 327.42,311.83 C 327.19,311.27 327.00,310.98 326.79,310.21 C 326.58,309.44 326.31,308.19 326.17,307.21 C 326.02,306.23 326.00,305.35 325.92,304.33 C 325.83,303.31 325.71,302.17 325.67,301.08 C 325.62,300.00 325.67,298.94 325.67,297.83 C 325.67,296.73 325.62,295.58 325.67,294.46 C 325.71,293.33 325.83,292.21 325.92,291.08 C 326.00,289.96 326.04,288.83 326.17,287.71 C 326.29,286.58 326.50,285.23 326.67,284.33 C 326.83,283.44 327.00,283.00 327.17,282.33 C 327.33,281.67 327.50,280.94 327.67,280.33 C 327.83,279.73 328.00,279.25 328.17,278.71 C 328.33,278.17 328.50,277.58 328.67,277.08 C 328.83,276.58 329.00,276.17 329.17,275.71 C 329.33,275.25 329.50,274.77 329.67,274.33 C 329.83,273.90 330.00,273.50 330.17,273.08 C 330.33,272.67 330.50,272.25 330.67,271.83 C 330.83,271.42 331.00,271.00 331.17,270.58 C 331.33,270.17 331.50,269.73 331.67,269.33 C 331.83,268.94 331.98,268.60 332.17,268.21 C 332.35,267.81 332.58,267.38 332.79,266.96 C 333.00,266.54 333.21,266.12 333.42,265.71 C 333.62,265.29 333.83,264.85 334.04,264.46 C 334.25,264.06 334.44,263.73 334.67,263.33 C 334.90,262.94 335.17,262.50 335.42,262.08 C 335.67,261.67 335.88,261.29 336.17,260.83 C 336.46,260.38 336.83,259.83 337.17,259.33 C 337.50,258.83 337.59,258.58 338.17,257.83 C 338.74,257.09 339.78,255.84 340.63,254.87 C 341.47,253.91 342.33,253.01 343.21,252.04 C 344.09,251.08 344.99,250.05 345.92,249.08 C 346.84,248.12 347.81,247.19 348.75,246.25 C 349.69,245.31 350.62,244.34 351.58,243.42 C 352.55,242.49 353.60,241.57 354.54,240.71 C 355.49,239.85 356.33,239.05 357.25,238.25 C 358.17,237.45 359.38,236.45 360.08,235.92 C 360.78,235.38 361.00,235.33 361.46,235.04 C 361.92,234.75 362.40,234.44 362.83,234.17 C 363.27,233.90 363.67,233.67 364.08,233.42 C 364.50,233.17 364.94,232.90 365.33,232.67 C 365.73,232.44 366.08,232.25 366.46,232.04 C 366.83,231.83 367.19,231.65 367.58,231.42 C 367.98,231.19 368.42,230.92 368.83,230.67 C 369.25,230.42 369.69,230.15 370.08,229.92 C 370.48,229.69 370.83,229.50 371.21,229.29 C 371.58,229.08 371.96,228.88 372.33,228.67 C 372.71,228.46 373.08,228.25 373.46,228.04 C 373.83,227.83 374.19,227.65 374.58,227.42 C 374.98,227.19 375.42,226.92 375.83,226.67 C 376.25,226.42 376.69,226.15 377.08,225.92 C 377.48,225.69 377.83,225.50 378.21,225.29 C 378.58,225.08 378.96,224.88 379.33,224.67 C 379.71,224.46 380.08,224.25 380.46,224.04 C 380.83,223.83 381.21,223.63 381.58,223.42 C 381.96,223.21 382.33,223.00 382.71,222.79 C 383.08,222.58 383.46,222.38 383.83,222.17 C 384.21,221.96 384.58,221.75 384.96,221.54 C 385.33,221.33 385.71,221.13 386.08,220.92 C 386.46,220.71 386.83,220.50 387.21,220.29 C 387.58,220.08 387.96,219.88 388.33,219.67 C 388.71,219.46 389.08,219.25 389.46,219.04 C 389.83,218.83 390.19,218.65 390.58,218.42 C 390.98,218.19 391.42,217.92 391.83,217.67 C 392.25,217.42 392.69,217.15 393.08,216.92 C 393.48,216.69 393.83,216.50 394.21,216.29 C 394.58,216.08 394.87,215.97 395.33,215.67 C 395.80,215.37 396.47,214.91 397.00,214.50 C 397.53,214.09 398.01,213.66 398.54,213.21 C 399.08,212.76 399.67,212.28 400.21,211.79 C 400.74,211.30 401.26,210.74 401.75,210.25 C 402.24,209.76 402.72,209.35 403.17,208.83 C 403.62,208.32 404.03,207.72 404.46,207.17 C 404.89,206.61 405.34,206.93 405.75,205.50 C 406.16,204.07 406.66,200.81 406.92,198.58 C 407.17,196.36 407.18,194.28 407.29,192.17 C 407.40,190.05 407.60,187.85 407.58,185.88 C 407.56,183.90 407.33,182.16 407.17,180.33 C 407.01,178.51 406.85,176.68 406.63,174.92 C 406.40,173.15 406.12,171.43 405.83,169.75 Z M 330.21,97.21 C 330.51,97.74 330.78,98.26 331.17,98.88 C 331.55,99.49 332.03,100.22 332.50,100.92 C 332.97,101.62 333.42,102.30 333.96,103.08 C 334.50,103.87 335.12,104.79 335.75,105.63 C 336.38,106.46 337.25,107.42 337.75,108.08 C 338.25,108.74 338.42,109.08 338.75,109.58 C 339.08,110.08 339.46,110.63 339.75,111.08 C 340.04,111.54 340.25,111.90 340.50,112.33 C 340.75,112.77 341.02,113.27 341.25,113.71 C 341.48,114.15 341.67,114.54 341.88,114.96 C 342.08,115.38 342.31,115.81 342.50,116.21 C 342.69,116.60 342.83,116.92 343.00,117.33 C 343.17,117.75 343.33,118.25 343.50,118.71 C 343.67,119.17 343.83,119.56 344.00,120.08 C 344.17,120.60 344.33,121.25 344.50,121.83 C 344.67,122.42 344.83,122.81 345.00,123.58 C 345.17,124.35 345.38,125.50 345.50,126.46 C 345.62,127.42 345.67,128.29 345.75,129.33 C 345.83,130.38 345.96,131.58 346.00,132.71 C 346.04,133.83 346.00,134.98 346.00,136.08 C 346.00,137.19 346.04,138.25 346.00,139.33 C 345.96,140.42 345.83,141.54 345.75,142.58 C 345.67,143.62 345.62,144.58 345.50,145.58 C 345.38,146.58 345.17,147.79 345.00,148.58 C 344.83,149.38 344.67,149.75 344.50,150.33 C 344.33,150.92 344.17,151.58 344.00,152.08 C 343.83,152.58 343.67,152.92 343.50,153.33 C 343.33,153.75 343.17,154.19 343.00,154.58 C 342.83,154.98 342.67,155.33 342.50,155.71 C 342.33,156.08 342.17,156.48 342.00,156.83 C 341.83,157.19 341.69,157.48 341.50,157.83 C 341.31,158.19 341.08,158.58 340.88,158.96 C 340.67,159.33 340.48,159.69 340.25,160.08 C 340.02,160.48 339.75,160.92 339.50,161.33 C 339.25,161.75 339.26,161.90 338.75,162.58 C 338.24,163.26 337.22,164.49 336.42,165.42 C 335.62,166.34 334.82,167.18 333.96,168.12 C 333.10,169.07 332.17,170.12 331.25,171.08 C 330.33,172.05 329.36,172.97 328.42,173.92 C 327.47,174.86 326.55,175.83 325.58,176.75 C 324.62,177.67 323.61,178.56 322.62,179.46 C 321.64,180.36 320.67,181.28 319.67,182.17 C 318.66,183.05 317.35,184.15 316.58,184.75 C 315.82,185.35 315.58,185.42 315.08,185.75 C 314.58,186.08 314.04,186.46 313.58,186.75 C 313.12,187.04 312.75,187.25 312.33,187.50 C 311.92,187.75 311.50,188.00 311.08,188.25 C 310.67,188.50 310.27,188.75 309.83,189.00 C 309.40,189.25 308.90,189.52 308.46,189.75 C 308.02,189.98 307.62,190.17 307.21,190.38 C 306.79,190.58 306.38,190.79 305.96,191.00 C 305.54,191.21 305.12,191.42 304.71,191.62 C 304.29,191.83 303.88,192.04 303.46,192.25 C 303.04,192.46 302.62,192.67 302.21,192.88 C 301.79,193.08 301.35,193.31 300.96,193.50 C 300.56,193.69 300.19,193.83 299.83,194.00 C 299.48,194.17 299.17,194.33 298.83,194.50 C 298.50,194.67 298.19,194.83 297.83,195.00 C 297.48,195.17 297.08,195.33 296.71,195.50 C 296.33,195.67 295.98,195.83 295.58,196.00 C 295.19,196.17 294.75,196.33 294.33,196.50 C 293.92,196.67 293.52,196.83 293.08,197.00 C 292.65,197.17 292.17,197.33 291.71,197.50 C 291.25,197.67 290.79,197.83 290.33,198.00 C 289.88,198.17 289.42,198.33 288.96,198.50 C 288.50,198.67 288.06,198.83 287.58,199.00 C 287.10,199.17 286.58,199.33 286.08,199.50 C 285.58,199.67 285.08,199.83 284.58,200.00 C 284.08,200.17 283.58,200.33 283.08,200.50 C 282.58,200.67 282.12,200.83 281.58,201.00 C 281.04,201.17 280.42,201.33 279.83,201.50 C 279.25,201.67 278.71,201.83 278.08,202.00 C 277.46,202.17 276.75,202.33 276.08,202.50 C 275.42,202.67 274.75,202.83 274.08,203.00 C 273.42,203.17 272.75,203.33 272.08,203.50 C 271.42,203.67 270.81,203.83 270.08,204.00 C 269.35,204.17 268.50,204.33 267.71,204.50 C 266.92,204.67 266.19,204.83 265.33,205.00 C 264.48,205.17 263.50,205.33 262.58,205.50 C 261.67,205.67 260.90,205.83 259.83,206.00 C 258.77,206.17 257.42,206.33 256.21,206.50 C 255.00,206.67 254.25,206.83 252.58,207.00 C 250.92,207.17 248.33,207.38 246.21,207.50 C 244.08,207.62 242.04,207.67 239.83,207.75 C 237.62,207.83 235.25,207.96 232.96,208.00 C 230.67,208.04 228.37,208.00 226.08,208.00 C 223.79,208.00 221.50,208.04 219.21,208.00 C 216.92,207.96 214.50,207.83 212.33,207.75 C 210.17,207.67 208.25,207.62 206.21,207.50 C 204.17,207.38 201.69,207.17 200.08,207.00 C 198.48,206.83 197.75,206.67 196.58,206.50 C 195.42,206.33 194.12,206.17 193.08,206.00 C 192.04,205.83 191.25,205.67 190.33,205.50 C 189.42,205.33 188.42,205.17 187.58,205.00 C 186.75,204.83 186.08,204.67 185.33,204.50 C 184.58,204.33 183.81,204.17 183.08,204.00 C 182.35,203.83 181.67,203.67 180.96,203.50 C 180.25,203.33 179.50,203.17 178.83,203.00 C 178.17,202.83 177.58,202.67 176.96,202.50 C 176.33,202.33 175.69,202.17 175.08,202.00 C 174.48,201.83 173.92,201.67 173.33,201.50 C 172.75,201.33 172.12,201.17 171.58,201.00 C 171.04,200.83 170.58,200.67 170.08,200.50 C 169.58,200.33 169.06,200.17 168.58,200.00 C 168.10,199.83 167.67,199.67 167.21,199.50 C 166.75,199.33 166.29,199.17 165.83,199.00 C 165.38,198.83 164.92,198.67 164.46,198.50 C 164.00,198.33 163.52,198.17 163.08,198.00 C 162.65,197.83 162.25,197.67 161.83,197.50 C 161.42,197.33 161.00,197.17 160.58,197.00 C 160.17,196.83 159.75,196.67 159.33,196.50 C 158.92,196.33 158.48,196.17 158.08,196.00 C 157.69,195.83 157.33,195.67 156.96,195.50 C 156.58,195.33 156.19,195.17 155.83,195.00 C 155.48,194.83 155.17,194.67 154.83,194.50 C 154.50,194.33 154.19,194.17 153.83,194.00 C 153.48,193.83 153.08,193.67 152.71,193.50 C 152.33,193.33 151.96,193.17 151.58,193.00 C 151.21,192.83 150.85,192.69 150.46,192.50 C 150.06,192.31 149.62,192.08 149.21,191.88 C 148.79,191.67 148.38,191.46 147.96,191.25 C 147.54,191.04 147.12,190.83 146.71,190.62 C 146.29,190.42 145.90,190.23 145.46,190.00 C 145.02,189.77 144.52,189.50 144.08,189.25 C 143.65,189.00 143.25,188.75 142.83,188.50 C 142.42,188.25 142.00,188.00 141.58,187.75 C 141.17,187.50 140.75,187.25 140.33,187.00 C 139.92,186.75 139.50,186.50 139.08,186.25 C 138.67,186.00 138.25,185.75 137.83,185.50 C 137.42,185.25 137.00,185.00 136.58,184.75 C 136.17,184.50 135.73,184.23 135.33,184.00 C 134.94,183.77 134.58,183.58 134.21,183.38 C 133.83,183.17 133.48,182.98 133.08,182.75 C 132.69,182.52 132.25,182.25 131.83,182.00 C 131.42,181.75 130.98,181.48 130.58,181.25 C 130.19,181.02 129.83,180.83 129.46,180.62 C 129.08,180.42 128.73,180.23 128.33,180.00 C 127.94,179.77 127.50,179.50 127.08,179.25 C 126.67,179.00 126.25,178.75 125.83,178.50 C 125.42,178.25 125.00,178.00 124.58,177.75 C 124.17,177.50 123.73,177.23 123.33,177.00 C 122.94,176.77 122.58,176.58 122.21,176.38 C 121.83,176.17 121.48,175.98 121.08,175.75 C 120.69,175.52 120.25,175.25 119.83,175.00 C 119.42,174.75 118.98,174.48 118.58,174.25 C 118.19,174.02 117.83,173.83 117.46,173.62 C 117.08,173.42 116.71,173.21 116.33,173.00 C 115.96,172.79 115.58,172.58 115.21,172.38 C 114.83,172.17 114.48,171.98 114.08,171.75 C 113.69,171.52 113.25,171.25 112.83,171.00 C 112.42,170.75 111.98,170.48 111.58,170.25 C 111.19,170.02 110.83,169.83 110.46,169.62 C 110.08,169.42 109.71,169.21 109.33,169.00 C 108.96,168.79 108.58,168.58 108.21,168.38 C 107.83,168.17 107.46,167.96 107.08,167.75 C 106.71,167.54 106.33,167.33 105.96,167.12 C 105.58,166.92 105.19,166.69 104.83,166.50 C 104.48,166.31 104.25,166.17 103.83,166.00 C 103.42,165.83 102.83,165.62 102.33,165.50 C 101.83,165.38 101.33,165.33 100.83,165.25 C 100.33,165.17 99.83,165.04 99.33,165.00 C 98.83,164.96 98.33,165.00 97.83,165.00 C 97.33,165.00 96.90,164.89 96.33,165.00 C 95.76,165.11 95.03,165.42 94.42,165.67 C 93.80,165.91 93.22,166.15 92.62,166.46 C 92.03,166.76 91.33,167.11 90.83,167.50 C 90.34,167.89 90.06,168.36 89.67,168.79 C 89.28,169.22 88.87,168.09 88.50,170.08 C 88.13,172.08 87.76,177.19 87.46,180.75 C 87.15,184.31 86.90,187.89 86.67,191.46 C 86.44,195.03 86.17,198.72 86.08,202.17 C 86.00,205.62 86.14,208.90 86.17,212.17 C 86.19,215.44 86.18,218.62 86.25,221.79 C 86.32,224.96 86.47,228.12 86.58,231.17 C 86.69,234.21 86.76,237.12 86.92,240.04 C 87.07,242.96 87.31,247.40 87.50,248.67 C 87.69,249.94 87.89,248.05 88.08,247.67 C 88.28,247.28 88.49,246.83 88.67,246.37 C 88.85,245.92 89.00,245.42 89.17,244.96 C 89.33,244.49 89.50,244.02 89.67,243.58 C 89.83,243.15 90.00,242.75 90.17,242.33 C 90.33,241.92 90.50,241.48 90.67,241.08 C 90.83,240.69 91.00,240.33 91.17,239.96 C 91.33,239.58 91.50,239.19 91.67,238.83 C 91.83,238.48 91.98,238.19 92.17,237.83 C 92.35,237.48 92.58,237.08 92.79,236.71 C 93.00,236.33 93.17,236.00 93.42,235.58 C 93.67,235.17 94.00,234.67 94.29,234.21 C 94.58,233.75 94.76,233.41 95.17,232.83 C 95.58,232.26 96.20,231.42 96.75,230.75 C 97.30,230.08 97.85,229.49 98.46,228.79 C 99.07,228.10 99.74,227.30 100.42,226.58 C 101.09,225.87 101.83,225.17 102.50,224.50 C 103.17,223.83 103.78,223.17 104.46,222.54 C 105.13,221.91 105.89,221.28 106.54,220.71 C 107.19,220.14 107.74,219.63 108.38,219.13 C 109.01,218.62 109.80,218.03 110.33,217.67 C 110.87,217.30 111.17,217.17 111.58,216.92 C 112.00,216.67 112.46,216.38 112.83,216.17 C 113.21,215.96 113.50,215.83 113.83,215.67 C 114.17,215.50 114.50,215.33 114.83,215.17 C 115.17,215.00 115.46,214.83 115.83,214.67 C 116.21,214.50 116.67,214.33 117.08,214.17 C 117.50,214.00 117.85,213.83 118.33,213.67 C 118.81,213.50 119.42,213.33 119.96,213.17 C 120.50,213.00 120.73,212.83 121.58,212.67 C 122.44,212.50 123.92,212.29 125.08,212.17 C 126.25,212.04 127.33,212.00 128.58,211.92 C 129.83,211.83 131.25,211.71 132.58,211.67 C 133.92,211.63 135.25,211.67 136.58,211.67 C 137.92,211.67 139.25,211.63 140.58,211.67 C 141.92,211.71 143.29,211.83 144.58,211.92 C 145.88,212.00 147.08,212.04 148.33,212.17 C 149.58,212.29 151.12,212.50 152.08,212.67 C 153.04,212.83 153.42,213.00 154.08,213.17 C 154.75,213.33 155.50,213.50 156.08,213.67 C 156.67,213.83 157.08,214.00 157.58,214.17 C 158.08,214.33 158.60,214.50 159.08,214.67 C 159.56,214.83 160.00,215.00 160.46,215.17 C 160.92,215.33 161.40,215.50 161.83,215.67 C 162.27,215.83 162.67,216.00 163.08,216.17 C 163.50,216.33 163.94,216.50 164.33,216.67 C 164.73,216.83 165.08,217.00 165.46,217.17 C 165.83,217.33 166.21,217.50 166.58,217.67 C 166.96,217.83 167.33,218.00 167.71,218.17 C 168.08,218.33 168.48,218.50 168.83,218.67 C 169.19,218.83 169.50,219.00 169.83,219.17 C 170.17,219.33 170.50,219.50 170.83,219.67 C 171.17,219.83 171.48,219.98 171.83,220.17 C 172.19,220.35 172.58,220.58 172.96,220.79 C 173.33,221.00 173.69,221.19 174.08,221.42 C 174.48,221.65 174.92,221.92 175.33,222.17 C 175.75,222.42 176.17,222.67 176.58,222.92 C 177.00,223.17 177.42,223.42 177.83,223.67 C 178.25,223.92 178.62,224.13 179.08,224.42 C 179.54,224.71 180.08,225.08 180.58,225.42 C 181.08,225.75 181.56,226.06 182.08,226.42 C 182.60,226.77 183.17,227.17 183.71,227.54 C 184.25,227.92 184.71,228.21 185.33,228.67 C 185.96,229.13 186.75,229.75 187.46,230.29 C 188.17,230.83 188.63,231.13 189.58,231.92 C 190.53,232.70 191.99,233.95 193.17,235.00 C 194.34,236.05 195.41,237.08 196.62,238.21 C 197.84,239.34 199.20,240.58 200.46,241.79 C 201.72,243.01 202.91,244.24 204.17,245.50 C 205.42,246.76 206.74,248.03 208.00,249.33 C 209.26,250.63 210.53,252.03 211.71,253.29 C 212.88,254.55 213.95,255.66 215.04,256.88 C 216.13,258.09 217.40,259.57 218.25,260.58 C 219.10,261.60 219.50,262.17 220.12,262.96 C 220.75,263.75 221.46,264.62 222.00,265.33 C 222.54,266.04 222.92,266.58 223.38,267.21 C 223.83,267.83 224.33,268.50 224.75,269.08 C 225.17,269.67 225.50,270.17 225.88,270.71 C 226.25,271.25 226.65,271.81 227.00,272.33 C 227.35,272.85 227.67,273.33 228.00,273.83 C 228.33,274.33 228.69,274.85 229.00,275.33 C 229.31,275.81 229.58,276.25 229.88,276.71 C 230.17,277.17 230.46,277.62 230.75,278.08 C 231.04,278.54 231.33,279.00 231.62,279.46 C 231.92,279.92 232.23,280.40 232.50,280.83 C 232.77,281.27 233.00,281.67 233.25,282.08 C 233.50,282.50 233.77,282.94 234.00,283.33 C 234.23,283.73 234.42,284.08 234.62,284.46 C 234.83,284.83 235.04,285.21 235.25,285.58 C 235.46,285.96 235.67,286.33 235.88,286.71 C 236.08,287.08 236.29,287.46 236.50,287.83 C 236.71,288.21 236.92,288.58 237.12,288.96 C 237.33,289.33 237.54,289.71 237.75,290.08 C 237.96,290.46 238.17,290.83 238.38,291.21 C 238.58,291.58 238.79,291.96 239.00,292.33 C 239.21,292.71 239.42,293.08 239.62,293.46 C 239.83,293.83 240.04,294.21 240.25,294.58 C 240.46,294.96 240.67,295.31 240.88,295.71 C 241.08,296.10 241.31,296.56 241.50,296.96 C 241.69,297.35 241.83,297.71 242.00,298.08 C 242.17,298.46 242.33,298.83 242.50,299.21 C 242.67,299.58 242.83,299.96 243.00,300.33 C 243.17,300.71 243.33,301.08 243.50,301.46 C 243.67,301.83 243.83,302.19 244.00,302.58 C 244.17,302.98 244.33,303.42 244.50,303.83 C 244.67,304.25 244.83,304.69 245.00,305.08 C 245.17,305.48 245.33,305.83 245.50,306.21 C 245.67,306.58 245.83,306.94 246.00,307.33 C 246.17,307.73 246.33,308.17 246.50,308.58 C 246.67,309.00 246.83,309.40 247.00,309.83 C 247.17,310.27 247.33,310.75 247.50,311.21 C 247.67,311.67 247.83,312.15 248.00,312.58 C 248.17,313.02 248.33,313.42 248.50,313.83 C 248.67,314.25 248.83,314.65 249.00,315.08 C 249.17,315.52 249.33,316.00 249.50,316.46 C 249.67,316.92 249.83,317.35 250.00,317.83 C 250.17,318.31 250.33,318.83 250.50,319.33 C 250.67,319.83 250.83,320.33 251.00,320.83 C 251.17,321.33 251.33,321.83 251.50,322.33 C 251.67,322.83 251.83,323.29 252.00,323.83 C 252.17,324.38 252.33,325.00 252.50,325.58 C 252.67,326.17 252.83,326.73 253.00,327.33 C 253.17,327.94 253.33,328.58 253.50,329.21 C 253.67,329.83 253.83,330.44 254.00,331.08 C 254.17,331.73 254.33,332.42 254.50,333.08 C 254.67,333.75 254.83,334.35 255.00,335.08 C 255.17,335.81 255.33,336.67 255.50,337.46 C 255.67,338.25 255.83,338.92 256.00,339.83 C 256.17,340.75 256.33,341.92 256.50,342.96 C 256.67,344.00 256.83,343.90 257.00,346.08 C 257.17,348.27 257.33,352.75 257.50,356.08 C 257.67,359.42 257.83,362.81 258.00,366.08 C 258.17,369.35 258.26,372.43 258.50,375.71 C 258.74,378.99 259.09,382.51 259.42,385.75 C 259.74,388.99 260.11,392.03 260.46,395.17 C 260.81,398.31 261.11,401.63 261.50,404.58 C 261.89,407.53 262.36,410.11 262.79,412.87 C 263.22,415.64 263.57,419.61 264.08,421.17 C 264.60,422.72 265.28,421.90 265.87,422.21 C 266.47,422.51 267.03,422.76 267.67,423.00 C 268.31,423.24 269.10,423.56 269.71,423.67 C 270.32,423.78 270.79,423.67 271.33,423.67 C 271.88,423.67 272.42,423.71 272.96,423.67 C 273.50,423.62 274.06,423.50 274.58,423.42 C 275.10,423.33 275.58,423.29 276.08,423.17 C 276.58,423.04 277.15,422.83 277.58,422.67 C 278.02,422.50 278.33,422.33 278.71,422.17 C 279.08,422.00 279.48,421.83 279.83,421.67 C 280.19,421.50 280.48,421.35 280.83,421.17 C 281.19,420.98 281.58,420.75 281.96,420.54 C 282.33,420.33 282.71,420.12 283.08,419.92 C 283.46,419.71 283.83,419.50 284.21,419.29 C 284.58,419.08 284.96,418.87 285.33,418.67 C 285.71,418.46 286.08,418.25 286.46,418.04 C 286.83,417.83 287.19,417.65 287.58,417.42 C 287.98,417.19 288.42,416.92 288.83,416.67 C 289.25,416.42 289.69,416.15 290.08,415.92 C 290.48,415.69 290.83,415.50 291.21,415.29 C 291.58,415.08 291.96,414.87 292.33,414.67 C 292.71,414.46 293.08,414.25 293.46,414.04 C 293.83,413.83 294.19,413.65 294.58,413.42 C 294.98,413.19 295.42,412.92 295.83,412.67 C 296.25,412.42 296.69,412.15 297.08,411.92 C 297.48,411.69 297.83,411.50 298.21,411.29 C 298.58,411.08 298.96,410.87 299.33,410.67 C 299.71,410.46 300.08,410.25 300.46,410.04 C 300.83,409.83 301.19,409.65 301.58,409.42 C 301.98,409.19 302.42,408.92 302.83,408.67 C 303.25,408.42 303.69,408.15 304.08,407.92 C 304.48,407.69 304.83,407.50 305.21,407.29 C 305.58,407.08 305.96,406.87 306.33,406.67 C 306.71,406.46 307.08,406.25 307.46,406.04 C 307.83,405.83 308.19,405.65 308.58,405.42 C 308.98,405.19 309.42,404.92 309.83,404.67 C 310.25,404.42 310.69,404.15 311.08,403.92 C 311.48,403.69 311.83,403.50 312.21,403.29 C 312.58,403.08 312.94,402.90 313.33,402.67 C 313.73,402.44 314.17,402.17 314.58,401.92 C 315.00,401.67 315.42,401.42 315.83,401.17 C 316.25,400.92 316.67,400.67 317.08,400.42 C 317.50,400.17 317.94,399.90 318.33,399.67 C 318.73,399.44 319.08,399.25 319.46,399.04 C 319.83,398.83 320.21,398.62 320.58,398.42 C 320.96,398.21 321.33,398.00 321.71,397.79 C 322.08,397.58 322.46,397.37 322.83,397.17 C 323.21,396.96 323.58,396.75 323.96,396.54 C 324.33,396.33 324.71,396.12 325.08,395.92 C 325.46,395.71 325.83,395.50 326.21,395.29 C 326.58,395.08 326.94,394.90 327.33,394.67 C 327.73,394.44 328.17,394.17 328.58,393.92 C 329.00,393.67 329.42,393.42 329.83,393.17 C 330.25,392.92 330.67,392.67 331.08,392.42 C 331.50,392.17 331.94,391.90 332.33,391.67 C 332.73,391.44 333.08,391.25 333.46,391.04 C 333.83,390.83 334.21,390.62 334.58,390.42 C 334.96,390.21 335.33,390.00 335.71,389.79 C 336.08,389.58 336.45,389.37 336.83,389.17 C 337.22,388.96 337.63,388.76 338.00,388.54 C 338.37,388.32 338.74,388.07 339.04,387.83 C 339.35,387.60 339.60,387.36 339.83,387.12 C 340.06,386.89 340.26,386.61 340.42,386.42 C 340.58,386.22 340.75,386.11 340.79,385.96 C 340.83,385.81 340.75,385.61 340.67,385.50 C 340.58,385.39 340.56,385.36 340.29,385.29 C 340.02,385.22 339.53,385.09 339.04,385.08 C 338.56,385.08 338.14,385.18 337.38,385.25 C 336.61,385.32 335.43,385.42 334.46,385.50 C 333.49,385.58 332.62,385.67 331.54,385.75 C 330.46,385.83 329.16,385.96 327.96,386.00 C 326.76,386.04 325.54,386.00 324.33,386.00 C 323.12,386.00 321.92,386.04 320.71,386.00 C 319.50,385.96 318.21,385.83 317.08,385.75 C 315.96,385.67 315.00,385.62 313.96,385.50 C 312.92,385.38 311.69,385.17 310.83,385.00 C 309.98,384.83 309.50,384.67 308.83,384.50 C 308.17,384.33 307.40,384.17 306.83,384.00 C 306.27,383.83 305.92,383.67 305.46,383.50 C 305.00,383.33 304.50,383.17 304.08,383.00 C 303.67,382.83 303.35,382.69 302.96,382.50 C 302.56,382.31 302.10,382.08 301.71,381.88 C 301.31,381.67 301.00,381.50 300.58,381.25 C 300.17,381.00 299.67,380.67 299.21,380.38 C 298.75,380.08 298.39,379.89 297.83,379.50 C 297.28,379.11 296.51,378.55 295.87,378.04 C 295.24,377.53 294.69,377.03 294.04,376.46 C 293.39,375.89 292.63,375.26 291.96,374.63 C 291.28,373.99 290.65,373.32 290.00,372.67 C 289.35,372.01 288.67,371.38 288.04,370.71 C 287.41,370.03 286.78,369.28 286.21,368.62 C 285.64,367.97 285.13,367.42 284.63,366.79 C 284.12,366.16 283.56,365.39 283.17,364.83 C 282.78,364.28 282.58,363.92 282.29,363.46 C 282.00,363.00 281.67,362.50 281.42,362.08 C 281.17,361.67 281.00,361.33 280.79,360.96 C 280.58,360.58 280.35,360.19 280.17,359.83 C 279.98,359.48 279.83,359.19 279.67,358.83 C 279.50,358.48 279.33,358.08 279.17,357.71 C 279.00,357.33 278.83,356.98 278.67,356.58 C 278.50,356.19 278.33,355.75 278.17,355.33 C 278.00,354.92 277.83,354.52 277.67,354.08 C 277.50,353.65 277.33,353.17 277.17,352.71 C 277.00,352.25 276.83,351.83 276.67,351.33 C 276.50,350.83 276.33,350.25 276.17,349.71 C 276.00,349.17 275.83,348.65 275.67,348.08 C 275.50,347.52 275.33,346.92 275.17,346.33 C 275.00,345.75 274.83,345.33 274.67,344.58 C 274.50,343.83 274.33,342.75 274.17,341.83 C 274.00,340.92 273.83,340.17 273.67,339.08 C 273.50,338.00 273.29,336.58 273.17,335.33 C 273.04,334.08 273.00,333.00 272.92,331.58 C 272.83,330.17 272.71,328.42 272.67,326.83 C 272.62,325.25 272.67,323.69 272.67,322.08 C 272.67,320.48 272.62,318.83 272.67,317.21 C 272.71,315.58 272.83,313.83 272.92,312.33 C 273.00,310.83 273.04,309.58 273.17,308.21 C 273.29,306.83 273.50,305.33 273.67,304.08 C 273.83,302.83 274.00,301.83 274.17,300.71 C 274.33,299.58 274.50,298.29 274.67,297.33 C 274.83,296.38 275.00,295.75 275.17,294.96 C 275.33,294.17 275.50,293.35 275.67,292.58 C 275.83,291.81 276.00,291.08 276.17,290.33 C 276.33,289.58 276.50,288.79 276.67,288.08 C 276.83,287.38 277.00,286.75 277.17,286.08 C 277.33,285.42 277.50,284.71 277.67,284.08 C 277.83,283.46 278.00,282.92 278.17,282.33 C 278.33,281.75 278.50,281.15 278.67,280.58 C 278.83,280.02 279.00,279.50 279.17,278.96 C 279.33,278.42 279.50,277.83 279.67,277.33 C 279.83,276.83 280.00,276.42 280.17,275.96 C 280.33,275.50 280.50,275.04 280.67,274.58 C 280.83,274.12 281.00,273.67 281.17,273.21 C 281.33,272.75 281.50,272.29 281.67,271.83 C 281.83,271.38 282.00,270.92 282.17,270.46 C 282.33,270.00 282.50,269.52 282.67,269.08 C 282.83,268.65 283.00,268.25 283.17,267.83 C 283.33,267.42 283.50,267.00 283.67,266.58 C 283.83,266.17 284.00,265.75 284.17,265.33 C 284.33,264.92 284.50,264.50 284.67,264.08 C 284.83,263.67 285.00,263.25 285.17,262.83 C 285.33,262.42 285.50,261.98 285.67,261.58 C 285.83,261.19 286.00,260.83 286.17,260.46 C 286.33,260.08 286.50,259.71 286.67,259.33 C 286.83,258.96 287.00,258.58 287.17,258.21 C 287.33,257.83 287.50,257.46 287.67,257.08 C 287.83,256.71 288.00,256.33 288.17,255.96 C 288.33,255.58 288.50,255.19 288.67,254.83 C 288.83,254.48 289.00,254.17 289.17,253.83 C 289.33,253.50 289.50,253.17 289.67,252.83 C 289.83,252.50 290.00,252.17 290.17,251.83 C 290.33,251.50 290.50,251.17 290.67,250.83 C 290.83,250.50 291.00,250.17 291.17,249.83 C 291.33,249.50 291.50,249.17 291.67,248.83 C 291.83,248.50 292.00,248.17 292.17,247.83 C 292.33,247.50 292.50,247.17 292.67,246.83 C 292.83,246.50 293.00,246.17 293.17,245.83 C 293.33,245.50 293.50,245.17 293.67,244.83 C 293.83,244.50 293.98,244.19 294.17,243.83 C 294.35,243.48 294.58,243.08 294.79,242.71 C 295.00,242.33 295.21,241.96 295.42,241.58 C 295.62,241.21 295.83,240.83 296.04,240.46 C 296.25,240.08 296.44,239.73 296.67,239.33 C 296.90,238.94 297.17,238.50 297.42,238.08 C 297.67,237.67 297.90,237.27 298.17,236.83 C 298.44,236.40 298.75,235.92 299.04,235.46 C 299.33,235.00 299.62,234.54 299.92,234.08 C 300.21,233.62 300.50,233.17 300.79,232.71 C 301.08,232.25 301.35,231.81 301.67,231.33 C 301.98,230.85 302.33,230.33 302.67,229.83 C 303.00,229.33 303.33,228.83 303.67,228.33 C 304.00,227.83 304.33,227.33 304.67,226.83 C 305.00,226.33 305.29,225.87 305.67,225.33 C 306.04,224.79 306.50,224.17 306.92,223.58 C 307.33,223.00 307.71,222.46 308.17,221.83 C 308.62,221.21 309.17,220.50 309.67,219.83 C 310.17,219.17 310.26,218.91 311.17,217.83 C 312.08,216.76 313.78,214.84 315.13,213.38 C 316.47,211.91 317.83,210.51 319.21,209.04 C 320.59,207.58 321.99,206.05 323.42,204.58 C 324.84,203.12 326.33,201.67 327.75,200.25 C 329.17,198.83 330.53,197.42 331.96,196.04 C 333.38,194.66 334.89,193.28 336.29,191.96 C 337.69,190.64 338.99,189.38 340.38,188.12 C 341.76,186.87 343.59,185.24 344.58,184.42 C 345.58,183.59 345.75,183.58 346.33,183.17 C 346.92,182.75 347.52,182.31 348.08,181.92 C 348.65,181.52 349.17,181.17 349.71,180.79 C 350.25,180.42 350.83,180.00 351.33,179.67 C 351.83,179.33 352.25,179.08 352.71,178.79 C 353.17,178.50 353.65,178.19 354.08,177.92 C 354.52,177.65 354.92,177.42 355.33,177.17 C 355.75,176.92 356.17,176.67 356.58,176.42 C 357.00,176.17 357.42,175.92 357.83,175.67 C 358.25,175.42 358.69,175.15 359.08,174.92 C 359.48,174.69 359.83,174.50 360.21,174.29 C 360.58,174.08 360.96,173.88 361.33,173.67 C 361.71,173.46 362.08,173.25 362.46,173.04 C 362.83,172.83 363.19,172.65 363.58,172.42 C 363.98,172.19 364.42,171.92 364.83,171.67 C 365.25,171.42 365.69,171.15 366.08,170.92 C 366.48,170.69 366.83,170.50 367.21,170.29 C 367.58,170.08 367.96,169.88 368.33,169.67 C 368.71,169.46 369.08,169.25 369.46,169.04 C 369.83,168.83 370.21,168.62 370.58,168.42 C 370.96,168.21 371.33,168.00 371.71,167.79 C 372.08,167.58 372.46,167.38 372.83,167.17 C 373.21,166.96 373.58,166.75 373.96,166.54 C 374.33,166.33 374.71,166.12 375.08,165.92 C 375.46,165.71 375.83,165.50 376.21,165.29 C 376.58,165.08 376.94,164.90 377.33,164.67 C 377.73,164.44 378.17,164.17 378.58,163.92 C 379.00,163.67 379.42,163.42 379.83,163.17 C 380.25,162.92 380.67,162.67 381.08,162.42 C 381.50,162.17 381.94,161.90 382.33,161.67 C 382.73,161.44 383.08,161.25 383.46,161.04 C 383.83,160.83 384.19,160.65 384.58,160.42 C 384.98,160.19 385.42,159.92 385.83,159.67 C 386.25,159.42 386.69,159.15 387.08,158.92 C 387.48,158.69 387.83,158.50 388.21,158.29 C 388.58,158.08 388.96,157.88 389.33,157.67 C 389.71,157.46 390.08,157.25 390.46,157.04 C 390.83,156.83 391.19,156.65 391.58,156.42 C 391.98,156.19 392.42,155.92 392.83,155.67 C 393.25,155.42 393.66,155.17 394.08,154.92 C 394.51,154.66 394.97,154.41 395.38,154.12 C 395.78,153.84 396.15,153.51 396.54,153.21 C 396.93,152.90 397.34,152.78 397.71,152.29 C 398.08,151.80 398.44,150.93 398.75,150.25 C 399.06,149.57 399.30,148.91 399.54,148.21 C 399.78,147.51 400.05,146.74 400.21,146.04 C 400.37,145.34 400.42,144.70 400.50,144.00 C 400.58,143.30 400.79,142.64 400.67,141.83 C 400.54,141.03 400.08,140.03 399.75,139.17 C 399.42,138.30 399.10,137.47 398.71,136.62 C 398.32,135.78 397.87,134.74 397.42,134.08 C 396.97,133.42 396.47,133.14 396.00,132.67 C 395.53,132.19 395.08,131.70 394.58,131.25 C 394.09,130.80 393.58,130.41 393.04,129.96 C 392.51,129.51 391.95,128.99 391.38,128.54 C 390.80,128.09 390.07,127.57 389.58,127.25 C 389.10,126.93 388.83,126.83 388.46,126.62 C 388.08,126.42 387.71,126.21 387.33,126.00 C 386.96,125.79 386.58,125.58 386.21,125.38 C 385.83,125.17 385.46,124.96 385.08,124.75 C 384.71,124.54 384.33,124.33 383.96,124.12 C 383.58,123.92 383.21,123.71 382.83,123.50 C 382.46,123.29 382.08,123.08 381.71,122.88 C 381.33,122.67 380.96,122.46 380.58,122.25 C 380.21,122.04 379.83,121.83 379.46,121.62 C 379.08,121.42 378.71,121.21 378.33,121.00 C 377.96,120.79 377.58,120.58 377.21,120.38 C 376.83,120.17 376.46,119.96 376.08,119.75 C 375.71,119.54 375.33,119.33 374.96,119.12 C 374.58,118.92 374.21,118.71 373.83,118.50 C 373.46,118.29 373.08,118.08 372.71,117.88 C 372.33,117.67 371.96,117.46 371.58,117.25 C 371.21,117.04 370.83,116.83 370.46,116.62 C 370.08,116.42 369.71,116.21 369.33,116.00 C 368.96,115.79 368.58,115.58 368.21,115.38 C 367.83,115.17 367.46,114.96 367.08,114.75 C 366.71,114.54 366.33,114.33 365.96,114.12 C 365.58,113.92 365.21,113.71 364.83,113.50 C 364.46,113.29 364.08,113.08 363.71,112.88 C 363.33,112.67 362.96,112.46 362.58,112.25 C 362.21,112.04 361.83,111.83 361.46,111.62 C 361.08,111.42 360.71,111.21 360.33,111.00 C 359.96,110.79 359.58,110.58 359.21,110.38 C 358.83,110.17 358.46,109.96 358.08,109.75 C 357.71,109.54 357.33,109.33 356.96,109.12 C 356.58,108.92 356.19,108.69 355.83,108.50 C 355.48,108.31 355.17,108.17 354.83,108.00 C 354.50,107.83 354.19,107.69 353.83,107.50 C 353.48,107.31 353.08,107.08 352.71,106.88 C 352.33,106.67 351.96,106.46 351.58,106.25 C 351.21,106.04 350.83,105.83 350.46,105.62 C 350.08,105.42 349.71,105.21 349.33,105.00 C 348.96,104.79 348.58,104.58 348.21,104.38 C 347.83,104.17 347.48,103.98 347.08,103.75 C 346.69,103.52 346.25,103.25 345.83,103.00 C 345.42,102.75 344.98,102.48 344.58,102.25 C 344.19,102.02 343.83,101.83 343.46,101.62 C 343.08,101.42 342.71,101.21 342.33,101.00 C 341.96,100.79 341.58,100.58 341.21,100.38 C 340.83,100.17 340.46,99.96 340.08,99.75 C 339.71,99.54 339.33,99.33 338.96,99.12 C 338.58,98.92 338.19,98.69 337.83,98.50 C 337.48,98.31 337.17,98.17 336.83,98.00 C 336.50,97.83 336.19,97.69 335.83,97.50 C 335.48,97.31 335.08,97.08 334.71,96.88 C 334.33,96.67 333.96,96.46 333.58,96.25 C 333.21,96.04 332.83,95.83 332.46,95.62 C 332.08,95.42 331.70,95.21 331.33,95.00 C 330.97,94.79 330.62,94.55 330.25,94.38 C 329.87,94.20 329.26,93.90 329.08,93.96 C 328.90,94.02 329.12,94.47 329.17,94.75 C 329.22,95.03 329.20,95.26 329.38,95.67 C 329.55,96.08 329.91,96.67 330.21,97.21 Z M 213.33,93.00 C 212.46,93.00 211.60,92.94 210.71,93.00 C 209.81,93.06 208.85,93.25 207.96,93.38 C 207.06,93.50 206.28,93.51 205.33,93.75 C 204.39,93.99 203.06,94.42 202.29,94.79 C 201.53,95.16 201.28,95.55 200.75,95.96 C 200.22,96.37 199.60,96.78 199.08,97.25 C 198.57,97.72 198.14,98.28 197.67,98.79 C 197.19,99.31 196.70,99.78 196.25,100.33 C 195.80,100.89 195.37,101.55 194.96,102.12 C 194.55,102.70 194.16,102.53 193.79,103.79 C 193.42,105.06 192.96,107.78 192.75,109.71 C 192.54,111.64 192.59,113.51 192.54,115.38 C 192.49,117.24 192.40,119.07 192.46,120.92 C 192.51,122.76 192.72,124.65 192.87,126.46 C 193.03,128.26 193.19,129.99 193.42,131.75 C 193.64,133.51 193.92,135.32 194.21,137.04 C 194.49,138.76 194.78,140.40 195.12,142.08 C 195.47,143.76 195.86,146.15 196.29,147.12 C 196.72,148.10 197.26,147.68 197.71,147.92 C 198.15,148.15 198.54,148.33 198.96,148.54 C 199.37,148.75 199.81,148.98 200.21,149.17 C 200.60,149.35 200.92,149.50 201.33,149.67 C 201.75,149.83 202.25,150.00 202.71,150.17 C 203.17,150.33 203.58,150.50 204.08,150.67 C 204.58,150.83 205.17,151.00 205.71,151.17 C 206.25,151.33 206.71,151.50 207.33,151.67 C 207.96,151.83 208.75,152.00 209.46,152.17 C 210.17,152.33 210.60,152.50 211.58,152.67 C 212.56,152.83 214.08,153.04 215.33,153.17 C 216.58,153.29 217.77,153.33 219.08,153.42 C 220.40,153.50 221.83,153.62 223.21,153.67 C 224.58,153.71 225.96,153.67 227.33,153.67 C 228.71,153.67 230.08,153.71 231.46,153.67 C 232.83,153.62 234.29,153.50 235.58,153.42 C 236.87,153.33 238.00,153.29 239.21,153.17 C 240.42,153.04 241.87,152.83 242.83,152.67 C 243.79,152.50 244.25,152.33 244.96,152.17 C 245.67,152.00 246.48,151.83 247.08,151.67 C 247.69,151.50 248.08,151.33 248.58,151.17 C 249.08,151.00 249.60,150.83 250.08,150.67 C 250.56,150.50 250.98,150.35 251.46,150.17 C 251.94,149.98 252.48,149.75 252.96,149.54 C 253.44,149.33 253.87,149.12 254.33,148.92 C 254.79,148.71 255.27,148.50 255.71,148.29 C 256.15,148.08 256.41,148.01 256.96,147.67 C 257.51,147.33 258.34,146.74 259.00,146.25 C 259.66,145.76 260.28,145.22 260.92,144.71 C 261.56,144.19 262.24,143.72 262.83,143.17 C 263.43,142.61 263.97,141.95 264.50,141.38 C 265.03,140.80 265.55,140.39 266.04,139.71 C 266.53,139.03 267.03,138.10 267.46,137.29 C 267.89,136.49 268.26,135.70 268.63,134.88 C 268.99,134.05 269.49,133.05 269.67,132.33 C 269.84,131.62 269.67,131.17 269.67,130.58 C 269.67,130.00 269.73,129.44 269.67,128.83 C 269.60,128.23 269.42,127.56 269.29,126.96 C 269.17,126.35 269.11,125.82 268.92,125.21 C 268.72,124.60 268.41,123.81 268.13,123.29 C 267.84,122.78 267.56,122.56 267.21,122.12 C 266.86,121.69 266.45,121.16 266.04,120.71 C 265.63,120.26 265.20,119.87 264.75,119.42 C 264.30,118.97 263.83,118.45 263.33,118.00 C 262.84,117.55 262.28,117.12 261.79,116.71 C 261.30,116.30 260.87,115.91 260.37,115.54 C 259.88,115.17 259.32,114.82 258.83,114.50 C 258.35,114.18 257.92,113.92 257.46,113.62 C 257.00,113.33 256.52,113.02 256.08,112.75 C 255.65,112.48 255.25,112.25 254.83,112.00 C 254.42,111.75 253.98,111.48 253.58,111.25 C 253.19,111.02 252.83,110.83 252.46,110.62 C 252.08,110.42 251.73,110.23 251.33,110.00 C 250.94,109.77 250.50,109.50 250.08,109.25 C 249.67,109.00 249.25,108.75 248.83,108.50 C 248.42,108.25 248.00,108.00 247.58,107.75 C 247.17,107.50 246.73,107.23 246.33,107.00 C 245.94,106.77 245.58,106.58 245.21,106.38 C 244.83,106.17 244.48,105.98 244.08,105.75 C 243.69,105.52 243.25,105.25 242.83,105.00 C 242.42,104.75 241.98,104.48 241.58,104.25 C 241.19,104.02 240.83,103.83 240.46,103.62 C 240.08,103.42 239.71,103.21 239.33,103.00 C 238.96,102.79 238.58,102.58 238.21,102.38 C 237.83,102.17 237.48,101.98 237.08,101.75 C 236.69,101.52 236.25,101.25 235.83,101.00 C 235.42,100.75 234.98,100.48 234.58,100.25 C 234.19,100.02 233.83,99.83 233.46,99.62 C 233.08,99.42 232.73,99.23 232.33,99.00 C 231.94,98.77 231.50,98.50 231.08,98.25 C 230.67,98.00 230.25,97.75 229.83,97.50 C 229.42,97.25 229.00,97.00 228.58,96.75 C 228.17,96.50 227.73,96.23 227.33,96.00 C 226.94,95.77 226.60,95.58 226.21,95.38 C 225.81,95.17 225.37,94.96 224.96,94.75 C 224.54,94.54 224.35,94.33 223.71,94.12 C 223.06,93.92 221.94,93.65 221.08,93.50 C 220.23,93.35 219.44,93.33 218.58,93.25 C 217.73,93.17 216.83,93.04 215.96,93.00 C 215.08,92.96 214.21,93.00 213.33,93.00 Z M 256.33,67.00 C 255.62,67.00 254.92,66.96 254.21,67.00 C 253.50,67.04 252.77,67.17 252.08,67.25 C 251.40,67.33 250.75,67.38 250.08,67.50 C 249.42,67.62 248.60,67.83 248.08,68.00 C 247.56,68.17 247.35,68.31 246.96,68.50 C 246.56,68.69 246.10,68.92 245.71,69.12 C 245.31,69.33 244.96,69.54 244.58,69.75 C 244.21,69.96 243.83,70.17 243.46,70.38 C 243.08,70.58 242.71,70.79 242.33,71.00 C 241.96,71.21 241.58,71.42 241.21,71.62 C 240.83,71.83 240.48,72.02 240.08,72.25 C 239.69,72.48 239.25,72.75 238.83,73.00 C 238.42,73.25 237.98,73.52 237.58,73.75 C 237.19,73.98 236.83,74.17 236.46,74.38 C 236.08,74.58 235.73,74.77 235.33,75.00 C 234.94,75.23 234.50,75.50 234.08,75.75 C 233.67,76.00 233.25,76.25 232.83,76.50 C 232.42,76.75 232.00,77.00 231.58,77.25 C 231.17,77.50 230.73,77.77 230.33,78.00 C 229.94,78.23 229.58,78.42 229.21,78.62 C 228.83,78.83 228.47,79.04 228.08,79.25 C 227.70,79.46 227.28,79.65 226.92,79.88 C 226.55,80.10 226.13,80.35 225.88,80.58 C 225.62,80.82 225.48,81.06 225.38,81.29 C 225.27,81.53 225.25,81.76 225.25,82.00 C 225.25,82.24 225.29,82.47 225.37,82.71 C 225.46,82.94 225.56,83.16 225.75,83.42 C 225.94,83.67 226.21,83.97 226.50,84.25 C 226.79,84.53 227.12,84.81 227.50,85.08 C 227.88,85.36 228.34,85.65 228.79,85.92 C 229.24,86.18 229.74,86.42 230.21,86.67 C 230.67,86.92 231.15,87.17 231.58,87.42 C 232.02,87.67 232.42,87.92 232.83,88.17 C 233.25,88.42 233.67,88.67 234.08,88.92 C 234.50,89.17 234.92,89.42 235.33,89.67 C 235.75,89.92 236.17,90.17 236.58,90.42 C 237.00,90.67 237.42,90.92 237.83,91.17 C 238.25,91.42 238.67,91.67 239.08,91.92 C 239.50,92.17 239.94,92.44 240.33,92.67 C 240.73,92.90 241.08,93.08 241.46,93.29 C 241.83,93.50 242.19,93.69 242.58,93.92 C 242.98,94.15 243.42,94.42 243.83,94.67 C 244.25,94.92 244.69,95.19 245.08,95.42 C 245.48,95.65 245.83,95.83 246.21,96.04 C 246.58,96.25 246.96,96.46 247.33,96.67 C 247.71,96.87 248.08,97.08 248.46,97.29 C 248.83,97.50 249.19,97.69 249.58,97.92 C 249.98,98.15 250.42,98.42 250.83,98.67 C 251.25,98.92 251.69,99.19 252.08,99.42 C 252.48,99.65 252.83,99.83 253.21,100.04 C 253.58,100.25 253.94,100.44 254.33,100.67 C 254.73,100.90 255.17,101.17 255.58,101.42 C 256.00,101.67 256.42,101.92 256.83,102.17 C 257.25,102.42 257.67,102.67 258.08,102.92 C 258.50,103.17 258.92,103.42 259.33,103.67 C 259.75,103.92 260.17,104.17 260.58,104.42 C 261.00,104.67 261.40,104.90 261.83,105.17 C 262.27,105.44 262.75,105.75 263.21,106.04 C 263.67,106.33 264.07,106.57 264.58,106.92 C 265.10,107.26 265.74,107.70 266.29,108.12 C 266.84,108.55 267.31,108.97 267.88,109.46 C 268.44,109.94 269.12,110.49 269.71,111.04 C 270.30,111.59 270.87,112.20 271.42,112.75 C 271.97,113.30 272.49,113.76 273.00,114.33 C 273.51,114.90 273.99,115.58 274.46,116.17 C 274.92,116.76 275.37,117.28 275.79,117.88 C 276.22,118.47 276.67,119.17 277.00,119.71 C 277.33,120.24 277.50,120.44 277.75,121.08 C 278.00,121.73 278.33,122.79 278.50,123.58 C 278.67,124.38 278.67,125.06 278.75,125.83 C 278.83,126.60 278.96,127.42 279.00,128.21 C 279.04,129.00 279.00,129.81 279.00,130.58 C 279.00,131.35 279.04,132.08 279.00,132.83 C 278.96,133.58 278.83,134.33 278.75,135.08 C 278.67,135.83 278.62,136.58 278.50,137.33 C 278.38,138.08 278.17,139.02 278.00,139.58 C 277.83,140.15 277.83,140.17 277.50,140.71 C 277.17,141.24 276.55,142.14 276.04,142.79 C 275.53,143.44 275.01,143.99 274.46,144.62 C 273.91,145.26 273.34,145.95 272.75,146.58 C 272.16,147.22 271.53,147.81 270.92,148.42 C 270.31,149.03 269.72,149.66 269.08,150.25 C 268.45,150.84 267.78,151.39 267.12,151.96 C 266.47,152.53 265.84,153.12 265.17,153.67 C 264.49,154.22 263.62,154.88 263.08,155.25 C 262.55,155.62 262.33,155.67 261.96,155.88 C 261.58,156.08 261.19,156.31 260.83,156.50 C 260.48,156.69 260.19,156.83 259.83,157.00 C 259.48,157.17 259.08,157.33 258.71,157.50 C 258.33,157.67 257.96,157.83 257.58,158.00 C 257.21,158.17 256.83,158.33 256.46,158.50 C 256.08,158.67 255.75,158.83 255.33,159.00 C 254.92,159.17 254.42,159.33 253.96,159.50 C 253.50,159.67 253.10,159.83 252.58,160.00 C 252.06,160.17 251.42,160.33 250.83,160.50 C 250.25,160.67 249.73,160.83 249.08,161.00 C 248.44,161.17 247.67,161.33 246.96,161.50 C 246.25,161.67 245.90,161.83 244.83,162.00 C 243.77,162.17 242.00,162.38 240.58,162.50 C 239.17,162.62 237.81,162.67 236.33,162.75 C 234.85,162.83 233.25,162.96 231.71,163.00 C 230.17,163.04 228.60,163.00 227.08,163.00 C 225.56,163.00 224.08,163.04 222.58,163.00 C 221.08,162.96 219.54,162.83 218.08,162.75 C 216.62,162.67 215.25,162.62 213.83,162.50 C 212.42,162.38 210.67,162.17 209.58,162.00 C 208.50,161.83 208.08,161.67 207.33,161.50 C 206.58,161.33 205.73,161.17 205.08,161.00 C 204.44,160.83 204.00,160.67 203.46,160.50 C 202.92,160.33 202.35,160.17 201.83,160.00 C 201.31,159.83 200.83,159.67 200.33,159.50 C 199.83,159.33 199.29,159.17 198.83,159.00 C 198.37,158.83 198.02,158.69 197.58,158.50 C 197.15,158.31 196.65,158.08 196.21,157.88 C 195.77,157.67 195.37,157.46 194.96,157.25 C 194.54,157.04 194.12,156.83 193.71,156.62 C 193.29,156.42 192.90,156.23 192.46,156.00 C 192.02,155.77 191.52,155.50 191.08,155.25 C 190.65,155.00 190.25,154.75 189.83,154.50 C 189.42,154.25 189.00,154.00 188.58,153.75 C 188.17,153.50 187.75,153.25 187.33,153.00 C 186.92,152.75 186.50,152.50 186.08,152.25 C 185.67,152.00 185.25,151.75 184.83,151.50 C 184.42,151.25 184.00,151.00 183.58,150.75 C 183.17,150.50 182.73,150.23 182.33,150.00 C 181.94,149.77 181.58,149.58 181.21,149.38 C 180.83,149.17 180.48,148.98 180.08,148.75 C 179.69,148.52 179.25,148.25 178.83,148.00 C 178.42,147.75 177.98,147.48 177.58,147.25 C 177.19,147.02 176.83,146.83 176.46,146.62 C 176.08,146.42 175.73,146.23 175.33,146.00 C 174.94,145.77 174.50,145.50 174.08,145.25 C 173.67,145.00 173.25,144.75 172.83,144.50 C 172.42,144.25 172.00,144.00 171.58,143.75 C 171.17,143.50 170.75,143.25 170.33,143.00 C 169.92,142.75 169.50,142.50 169.08,142.25 C 168.67,142.00 168.25,141.75 167.83,141.50 C 167.42,141.25 167.00,141.00 166.58,140.75 C 166.17,140.50 165.73,140.23 165.33,140.00 C 164.94,139.77 164.58,139.58 164.21,139.38 C 163.83,139.17 163.48,138.98 163.08,138.75 C 162.69,138.52 162.25,138.25 161.83,138.00 C 161.42,137.75 160.98,137.48 160.58,137.25 C 160.19,137.02 159.83,136.83 159.46,136.62 C 159.08,136.42 158.71,136.21 158.33,136.00 C 157.96,135.79 157.58,135.58 157.21,135.38 C 156.83,135.17 156.46,134.96 156.08,134.75 C 155.71,134.54 155.35,134.33 154.96,134.12 C 154.56,133.92 154.10,133.69 153.71,133.50 C 153.31,133.31 153.08,133.17 152.58,133.00 C 152.08,132.83 151.33,132.62 150.71,132.50 C 150.08,132.38 149.50,132.33 148.83,132.25 C 148.17,132.17 147.42,132.04 146.71,132.00 C 146.00,131.96 145.29,132.00 144.58,132.00 C 143.88,132.00 143.17,131.96 142.46,132.00 C 141.75,132.04 141.02,132.17 140.33,132.25 C 139.65,132.33 139.00,132.38 138.33,132.50 C 137.67,132.62 136.88,132.83 136.33,133.00 C 135.79,133.17 135.52,133.31 135.08,133.50 C 134.65,133.69 134.12,133.92 133.71,134.12 C 133.29,134.33 132.96,134.54 132.58,134.75 C 132.21,134.96 131.83,135.17 131.46,135.38 C 131.08,135.58 130.71,135.79 130.33,136.00 C 129.96,136.21 129.58,136.42 129.21,136.62 C 128.83,136.83 128.48,137.02 128.08,137.25 C 127.69,137.48 127.25,137.75 126.83,138.00 C 126.42,138.25 125.98,138.52 125.58,138.75 C 125.19,138.98 124.83,139.17 124.46,139.38 C 124.08,139.58 123.71,139.79 123.33,140.00 C 122.96,140.21 122.58,140.42 122.21,140.62 C 121.83,140.83 121.48,141.02 121.08,141.25 C 120.69,141.48 120.25,141.75 119.83,142.00 C 119.42,142.25 118.98,142.52 118.58,142.75 C 118.19,142.98 117.83,143.17 117.46,143.38 C 117.08,143.58 116.71,143.79 116.33,144.00 C 115.96,144.21 115.58,144.42 115.21,144.62 C 114.83,144.83 114.48,145.02 114.08,145.25 C 113.69,145.48 113.25,145.75 112.83,146.00 C 112.42,146.25 111.98,146.52 111.58,146.75 C 111.19,146.98 110.83,147.17 110.46,147.38 C 110.08,147.58 109.73,147.77 109.33,148.00 C 108.94,148.23 108.50,148.50 108.08,148.75 C 107.67,149.00 107.26,149.25 106.83,149.50 C 106.41,149.75 105.95,149.99 105.54,150.25 C 105.13,150.51 104.69,150.83 104.38,151.08 C 104.06,151.34 103.83,151.56 103.62,151.79 C 103.42,152.03 103.25,152.26 103.12,152.50 C 103.00,152.74 102.92,152.97 102.88,153.21 C 102.83,153.44 102.81,153.70 102.88,153.92 C 102.94,154.13 103.08,154.31 103.25,154.50 C 103.42,154.69 103.62,154.89 103.88,155.08 C 104.13,155.28 104.47,155.49 104.79,155.67 C 105.12,155.85 105.49,156.00 105.83,156.17 C 106.17,156.33 106.50,156.50 106.83,156.67 C 107.17,156.83 107.48,156.98 107.83,157.17 C 108.19,157.35 108.58,157.58 108.96,157.79 C 109.33,158.00 109.71,158.21 110.08,158.42 C 110.46,158.62 110.83,158.83 111.21,159.04 C 111.58,159.25 111.94,159.44 112.33,159.67 C 112.73,159.90 113.17,160.17 113.58,160.42 C 114.00,160.67 114.42,160.92 114.83,161.17 C 115.25,161.42 115.67,161.67 116.08,161.92 C 116.50,162.17 116.94,162.44 117.33,162.67 C 117.73,162.90 118.08,163.08 118.46,163.29 C 118.83,163.50 119.19,163.69 119.58,163.92 C 119.98,164.15 120.42,164.42 120.83,164.67 C 121.25,164.92 121.69,165.19 122.08,165.42 C 122.48,165.65 122.83,165.83 123.21,166.04 C 123.58,166.25 123.96,166.46 124.33,166.67 C 124.71,166.88 125.08,167.08 125.46,167.29 C 125.83,167.50 126.19,167.69 126.58,167.92 C 126.98,168.15 127.42,168.42 127.83,168.67 C 128.25,168.92 128.69,169.19 129.08,169.42 C 129.48,169.65 129.83,169.83 130.21,170.04 C 130.58,170.25 130.96,170.46 131.33,170.67 C 131.71,170.88 132.08,171.08 132.46,171.29 C 132.83,171.50 133.19,171.69 133.58,171.92 C 133.98,172.15 134.42,172.42 134.83,172.67 C 135.25,172.92 135.69,173.19 136.08,173.42 C 136.48,173.65 136.83,173.83 137.21,174.04 C 137.58,174.25 137.96,174.46 138.33,174.67 C 138.71,174.88 139.08,175.08 139.46,175.29 C 139.83,175.50 140.19,175.69 140.58,175.92 C 140.98,176.15 141.42,176.42 141.83,176.67 C 142.25,176.92 142.67,177.17 143.08,177.42 C 143.50,177.67 143.92,177.92 144.33,178.17 C 144.75,178.42 145.17,178.67 145.58,178.92 C 146.00,179.17 146.42,179.42 146.83,179.67 C 147.25,179.92 147.67,180.17 148.08,180.42 C 148.50,180.67 148.92,180.92 149.33,181.17 C 149.75,181.42 150.19,181.69 150.58,181.92 C 150.98,182.15 151.33,182.33 151.71,182.54 C 152.08,182.75 152.48,182.98 152.83,183.17 C 153.19,183.35 153.50,183.50 153.83,183.67 C 154.17,183.83 154.50,184.00 154.83,184.17 C 155.17,184.33 155.48,184.50 155.83,184.67 C 156.19,184.83 156.58,185.00 156.96,185.17 C 157.33,185.33 157.71,185.50 158.08,185.67 C 158.46,185.83 158.83,186.00 159.21,186.17 C 159.58,186.33 159.94,186.50 160.33,186.67 C 160.73,186.83 161.17,187.00 161.58,187.17 C 162.00,187.33 162.42,187.50 162.83,187.67 C 163.25,187.83 163.67,188.00 164.08,188.17 C 164.50,188.33 164.92,188.50 165.33,188.67 C 165.75,188.83 166.17,189.00 166.58,189.17 C 167.00,189.33 167.40,189.50 167.83,189.67 C 168.27,189.83 168.75,190.00 169.21,190.17 C 169.67,190.33 170.10,190.50 170.58,190.67 C 171.06,190.83 171.58,191.00 172.08,191.17 C 172.58,191.33 173.04,191.50 173.58,191.67 C 174.12,191.83 174.75,192.00 175.33,192.17 C 175.92,192.33 176.48,192.50 177.08,192.67 C 177.69,192.83 178.33,193.00 178.96,193.17 C 179.58,193.33 180.19,193.50 180.83,193.67 C 181.48,193.83 182.17,194.00 182.83,194.17 C 183.50,194.33 184.10,194.50 184.83,194.67 C 185.56,194.83 186.42,195.00 187.21,195.17 C 188.00,195.33 188.73,195.50 189.58,195.67 C 190.44,195.83 191.42,196.00 192.33,196.17 C 193.25,196.33 193.98,196.50 195.08,196.67 C 196.19,196.83 197.67,197.00 198.96,197.17 C 200.25,197.33 201.27,197.50 202.83,197.67 C 204.40,197.83 206.50,198.04 208.33,198.17 C 210.17,198.29 211.87,198.33 213.83,198.42 C 215.79,198.50 218.00,198.63 220.08,198.67 C 222.17,198.71 224.23,198.67 226.33,198.67 C 228.44,198.67 230.58,198.71 232.71,198.67 C 234.83,198.63 237.10,198.50 239.08,198.42 C 241.06,198.33 242.75,198.29 244.58,198.17 C 246.42,198.04 248.50,197.83 250.08,197.67 C 251.67,197.50 252.75,197.33 254.08,197.17 C 255.42,197.00 256.94,196.83 258.08,196.67 C 259.23,196.50 260.00,196.33 260.96,196.17 C 261.92,196.00 262.98,195.83 263.83,195.67 C 264.69,195.50 265.33,195.33 266.08,195.17 C 266.83,195.00 267.62,194.83 268.33,194.67 C 269.04,194.50 269.67,194.33 270.33,194.17 C 271.00,194.00 271.71,193.83 272.33,193.67 C 272.96,193.50 273.50,193.33 274.08,193.17 C 274.67,193.00 275.27,192.83 275.83,192.67 C 276.40,192.50 276.92,192.33 277.46,192.17 C 278.00,192.00 278.54,191.83 279.08,191.67 C 279.62,191.50 280.17,191.33 280.71,191.17 C 281.25,191.00 281.81,190.83 282.33,190.67 C 282.85,190.50 283.33,190.33 283.83,190.17 C 284.33,190.00 284.85,189.83 285.33,189.67 C 285.81,189.50 286.25,189.33 286.71,189.17 C 287.17,189.00 287.65,188.83 288.08,188.67 C 288.52,188.50 288.92,188.33 289.33,188.17 C 289.75,188.00 290.17,187.83 290.58,187.67 C 291.00,187.50 291.42,187.33 291.83,187.17 C 292.25,187.00 292.69,186.83 293.08,186.67 C 293.48,186.50 293.83,186.33 294.21,186.17 C 294.58,186.00 294.96,185.83 295.33,185.67 C 295.71,185.50 296.08,185.33 296.46,185.17 C 296.83,185.00 297.21,184.83 297.58,184.67 C 297.96,184.50 298.33,184.33 298.71,184.17 C 299.08,184.00 299.48,183.83 299.83,183.67 C 300.19,183.50 300.48,183.35 300.83,183.17 C 301.19,182.98 301.58,182.75 301.96,182.54 C 302.33,182.33 302.69,182.15 303.08,181.92 C 303.48,181.69 303.92,181.42 304.33,181.17 C 304.75,180.92 305.15,180.69 305.58,180.42 C 306.02,180.15 306.50,179.83 306.96,179.54 C 307.42,179.25 307.83,179.00 308.33,178.67 C 308.83,178.33 309.42,177.92 309.96,177.54 C 310.50,177.17 310.87,176.97 311.58,176.42 C 312.30,175.87 313.38,174.99 314.25,174.25 C 315.12,173.51 315.92,172.74 316.79,171.96 C 317.66,171.17 318.59,170.37 319.46,169.54 C 320.33,168.72 321.17,167.83 322.00,167.00 C 322.83,166.17 323.63,165.41 324.42,164.58 C 325.20,163.76 325.99,162.85 326.71,162.04 C 327.43,161.24 328.09,160.53 328.75,159.75 C 329.41,158.97 330.22,157.94 330.67,157.33 C 331.11,156.72 331.17,156.50 331.42,156.08 C 331.67,155.67 331.96,155.21 332.17,154.83 C 332.38,154.46 332.50,154.17 332.67,153.83 C 332.83,153.50 333.00,153.17 333.17,152.83 C 333.33,152.50 333.50,152.19 333.67,151.83 C 333.83,151.48 334.00,151.08 334.17,150.71 C 334.33,150.33 334.50,150.02 334.67,149.58 C 334.83,149.15 335.00,148.58 335.17,148.08 C 335.33,147.58 335.50,147.23 335.67,146.58 C 335.83,145.94 336.04,145.00 336.17,144.21 C 336.29,143.42 336.33,142.69 336.42,141.83 C 336.50,140.98 336.62,140.00 336.67,139.08 C 336.71,138.17 336.67,137.25 336.67,136.33 C 336.67,135.42 336.71,134.50 336.67,133.58 C 336.62,132.67 336.50,131.71 336.42,130.83 C 336.33,129.96 336.29,129.17 336.17,128.33 C 336.04,127.50 335.83,126.52 335.67,125.83 C 335.50,125.15 335.33,124.75 335.17,124.21 C 335.00,123.67 334.83,123.06 334.67,122.58 C 334.50,122.10 334.35,121.77 334.17,121.33 C 333.98,120.90 333.75,120.40 333.54,119.96 C 333.33,119.52 333.12,119.13 332.92,118.71 C 332.71,118.29 332.50,117.85 332.29,117.46 C 332.08,117.06 331.94,116.77 331.67,116.33 C 331.40,115.90 331.00,115.33 330.67,114.83 C 330.33,114.33 330.13,113.97 329.67,113.33 C 329.20,112.70 328.49,111.78 327.88,111.04 C 327.26,110.30 326.62,109.62 325.96,108.88 C 325.30,108.13 324.62,107.33 323.92,106.58 C 323.22,105.84 322.51,105.18 321.75,104.42 C 320.99,103.65 320.16,102.78 319.33,102.00 C 318.51,101.22 317.58,100.41 316.79,99.71 C 316.01,99.01 315.37,98.41 314.62,97.79 C 313.88,97.17 312.99,96.49 312.33,96.00 C 311.68,95.51 311.25,95.25 310.71,94.88 C 310.17,94.50 309.58,94.08 309.08,93.75 C 308.58,93.42 308.17,93.17 307.71,92.88 C 307.25,92.58 306.77,92.27 306.33,92.00 C 305.90,91.73 305.50,91.50 305.08,91.25 C 304.67,91.00 304.25,90.75 303.83,90.50 C 303.42,90.25 303.00,90.00 302.58,89.75 C 302.17,89.50 301.73,89.23 301.33,89.00 C 300.94,88.77 300.58,88.58 300.21,88.38 C 299.83,88.17 299.48,87.98 299.08,87.75 C 298.69,87.52 298.25,87.25 297.83,87.00 C 297.42,86.75 296.98,86.48 296.58,86.25 C 296.19,86.02 295.83,85.83 295.46,85.62 C 295.08,85.42 294.71,85.21 294.33,85.00 C 293.96,84.79 293.58,84.58 293.21,84.38 C 292.83,84.17 292.48,83.98 292.08,83.75 C 291.69,83.52 291.25,83.25 290.83,83.00 C 290.42,82.75 289.98,82.48 289.58,82.25 C 289.19,82.02 288.83,81.83 288.46,81.62 C 288.08,81.42 287.71,81.21 287.33,81.00 C 286.96,80.79 286.58,80.58 286.21,80.38 C 285.83,80.17 285.48,79.98 285.08,79.75 C 284.69,79.52 284.25,79.25 283.83,79.00 C 283.42,78.75 282.98,78.48 282.58,78.25 C 282.19,78.02 281.83,77.83 281.46,77.62 C 281.08,77.42 280.73,77.23 280.33,77.00 C 279.94,76.77 279.50,76.50 279.08,76.25 C 278.67,76.00 278.25,75.75 277.83,75.50 C 277.42,75.25 277.00,75.00 276.58,74.75 C 276.17,74.50 275.73,74.23 275.33,74.00 C 274.94,73.77 274.58,73.58 274.21,73.38 C 273.83,73.17 273.48,72.98 273.08,72.75 C 272.69,72.52 272.25,72.25 271.83,72.00 C 271.42,71.75 270.98,71.48 270.58,71.25 C 270.19,71.02 269.83,70.83 269.46,70.62 C 269.08,70.42 268.71,70.21 268.33,70.00 C 267.96,69.79 267.60,69.58 267.21,69.38 C 266.81,69.17 266.38,68.96 265.96,68.75 C 265.54,68.54 265.27,68.33 264.71,68.12 C 264.15,67.92 263.27,67.65 262.58,67.50 C 261.90,67.35 261.27,67.33 260.58,67.25 C 259.90,67.17 259.17,67.04 258.46,67.00 C 257.75,66.96 257.04,67.00 256.33,67.00 Z" fill="#111111"/>
</svg>